<?xml version="1.0" encoding="utf-8"?>
<!-- Generator: Adobe Illustrator 25.3.1, SVG Export Plug-In . SVG Version: 6.00 Build 0)  -->
<svg version="1.1" id="Layer_1" xmlns="http://www.w3.org/2000/svg" xmlns:xlink="http://www.w3.org/1999/xlink" x="0px" y="0px"
	 viewBox="0 0 431.4 73.1" style="enable-background:new 0 0 431.4 73.1;" xml:space="preserve">
<style type="text/css">
	.st0{fill:#A9B838;}
	.st1{fill:#6D6E71;}
	.st2{fill:#7E8083;}
</style>
<g>
	<path class="st0" d="M329.4,59.6l-4.2-8l-0.8-1.5l-1.1,1.2c-3.2,3.5-7.1,6.1-11.7,7.7c-1.7,0.6-3.3,0.9-4.9,0.9
		c-2.2,0-4.1-0.7-5.7-2.1c-1.3-1.1-2.5-3.2-3.1-4.7c13.8-4.8,22-10.4,25.1-17c1.7-3.7,1.9-7.6,0.3-11.8c-2.3-6.2-7.6-10-14.3-10.1
		c-2.5,0-5.1,0.5-7.8,1.4c-8,2.9-14.1,9.3-17.1,17.8c-2.7,7.7-2.7,16.6,0.1,24.3c3.6,9.8,10.3,15.2,19.1,15.2c3,0,6.2-0.6,9.6-1.8
		c6.3-2.3,12.4-6.2,16.2-10.3l0.6-0.6L329.4,59.6z M310.2,32.8c-1.4,3-6.2,5.9-14.6,9c-0.2-5.7,2.2-12.3,8.3-14.5
		c1-0.3,1.9-0.5,2.7-0.5c1.3,0,3,0.5,3.8,2.6C310.8,30.5,310.7,31.6,310.2,32.8"/>
	<path class="st0" d="M250.7,14.7l-17.1-0.1l0.1-13.7L289,1.3L288.9,15l-17.1-0.1c-1.4,0-2.6,1.1-2.6,2.5l-0.4,55.7L252.5,73l0.4-56
		C252.9,15.7,251.9,14.7,250.7,14.7"/>
	<path class="st1" d="M67.7,73.1L52.8,73c-1,0-1.8-1.3-1.8-3.8l0-6.3l0-0.2l0.2-20.9l0.2-22.6c0-0.4,0-0.8-0.1-1.2l0.6,0l14,0.1
		c0.6,0,1.7,1.1,1.7,2.9l-0.3,45.2C67.3,66.8,67.1,70.4,67.7,73.1"/>
	<path class="st1" d="M162.3,73.1l0.2-32.4c0.1-7.5-1.5-13.5-4.6-17.4c-3-3.8-7.3-5.8-12.9-5.8c-3.5,0-6.6,0.7-9.4,2.1
		c-2.6,1.3-5,3.3-7.4,6.2c-0.4,0.5-1.1,1-2,1l-0.2,0c-1.1-0.1-1.8-0.9-2.1-1.6c-2.1-5-7.1-7.9-13.7-7.9c-6.4,0-11.7,2.5-15.5,7.6
		l0,0l0,0c-0.5,0.5-1.4,1.4-2.5,1.4c-0.8,0-1.7-0.5-2-1.8c-0.2-1.1-0.2-4.1-0.2-6.3c0-0.2,0-0.4,0-0.6l-14-0.1l-0.3,55.1l16.5,0.1
		l0.2-31.5l0-0.2c0-1.5,0-3.3,0.8-5c1.6-4,4.9-6.3,8.9-6.3c3,0,5.6,1.6,7.1,4.2c1.3,2.2,1.9,5.2,1.9,9.1L111,72.7l16.3,0.1l0.2-31.3
		c0-2.2,0.3-3.9,0.8-5.1c1.4-4.1,4.8-6.6,8.8-6.5l0.1,0c3.1,0,5.7,1.6,7.2,4.2c1.3,2.3,1.9,5.5,1.9,9.7L146.1,73L162.3,73.1z"/>
	<path class="st1" d="M42.8,44C41.7,41.4,40.1,39,38,37c-2.1-2-5.4-4.1-10.1-6.5c-10-5-12.1-8.7-12-10.9c0-2,0.6-3.5,1.9-4.7
		c1.3-1.2,3.1-1.8,5.5-1.8c4.4,0,8.6,1.5,12.5,4.4l1.6,1.1l0.7-1.8l3.7-10.4l0.3-1l-0.8-0.6C37.3,1.7,31.2,0.1,23,0
		C16.7,0,11.3,1.8,7.2,5.5C3,9.2,0.9,13.9,0.9,19.6c0,3,0.5,5.8,1.5,8.3c1,2.5,2.5,4.7,4.5,6.5c1.9,1.8,5.4,4,10.8,6.8
		c5,2.5,8.3,4.8,9.8,6.7c1.5,1.9,2.2,3.7,2.1,5.7c0,2.6-1,6-9.2,5.9c-4.3,0-8.7-1.7-13.2-4.8l-1.5-1.1L5,55.3L0.5,66L0,67.2l1,0.7
		c5.3,3.5,11.3,5.2,17.9,5.3c7.6,0.1,13.8-1.8,18.4-5.5c4.7-3.8,7.1-8.7,7.2-14.6C44.5,49.7,43.9,46.7,42.8,44"/>
	<path class="st0" d="M349.6,16.9c1.2,0,2.3,0.6,2.9,1.7l4.5,7.6c1.6,2.9,3,5.7,4.5,8.4l0.2,0c1.5-3,2.9-5.8,4.4-8.5l4.1-7.4
		c0.5-1,1.6-1.6,2.7-1.6l16.9,0.1l-18.4,26.5l18.4,29.4L372.9,73c-1.7,0-3.3-0.9-4.1-2.4l-4.2-7.7c-1.6-2.8-2.9-5.6-4.3-8.5l-0.3,0
		c-1.4,3-2.9,5.7-4.3,8.4l-4.4,8.2c-0.6,1.1-1.8,1.8-3.1,1.8l-17-0.1l19.2-28.3l-18.2-27.6L349.6,16.9z"/>
	<path class="st0" d="M419,0l-0.1,14.3c0,1,0.8,1.8,1.7,1.8l10.7,0.1l-0.1,12.8l-10.8-0.1c-0.9,0-1.7,0.7-1.7,1.7l-0.1,18.5
		c-0.1,6.7,1.5,9.8,6.8,9.9c2.2,0,3.9-0.2,5.2-0.4l0,13.2c-2.3,0.9-6.4,1.4-11.3,1.4c-5.6,0-10.3-2-13-4.9
		c-3.2-3.3-4.7-8.7-4.7-16.6l0.2-21.3c0-0.9-0.7-1.6-1.5-1.6l-5.9,0l0.1-12.8l5.6,0c1,0,1.9-0.8,1.9-1.8L402,3.8L419,0z"/>
	<path class="st1" d="M212.2,7L212,41.8c-0.1,12.6-4.8,18.4-13.2,18.4c-8.2-0.1-12.8-6.3-12.7-18.6L186.1,7H170l-0.1,33.3
		C169.7,63,180.2,73,198.1,73.1c18.6,0.1,29.7-10.2,29.9-32.2l0.3-34H212.2z"/>
</g>
<path class="st2" d="M1241.1,89.3l-40.6,0c-2.7,0-4.9-3.6-4.9-10.2v-17v-0.6V4.5v-61.3c0-1.1-0.1-2.2-0.3-3.3h1.7h38.2
	c1.7,0,4.7,3,4.7,7.9v123C1239.8,72.3,1239.4,81.9,1241.1,89.3"/>
<path class="st2" d="M1498.5,90.1V2c0-20.3-4.4-36.6-12.9-47.3c-8.2-10.3-20-15.6-35.1-15.6c-9.5,0-18,2-25.5,5.8
	c-7,3.5-13.5,9.1-19.9,17c-1,1.4-2.9,2.8-5.5,2.8h-0.5c-3-0.2-5-2.3-5.7-4.4c-5.9-13.5-19.5-21.3-37.3-21.3
	c-17.5,0-31.6,7-42.1,20.9L1314-40l-0.1,0.1c-1.2,1.5-3.7,3.9-6.8,3.9c-2.1,0-4.7-1.3-5.5-4.8c-0.7-2.9-0.7-11.2-0.6-17.2
	c0-0.5,0-1.1,0-1.6h-38.1l0.3,149.8l44.9,0V4.6V4c0-4,0-9,2.1-13.5c4.4-11,13.1-17.3,24-17.3c8.3,0,15.4,4.1,19.5,11.2
	c3.5,6.1,5.3,14.2,5.3,24.7V90h44.2V4.9c0-5.9,0.7-10.6,2-13.8c3.8-11.1,12.9-18,23.8-18h0.3c8.4,0,15.5,4.1,19.6,11.3
	c3.6,6.3,5.4,14.9,5.4,26.3V90L1498.5,90.1z"/>
<path class="st2" d="M1177,12.1c-3.1-7.2-7.6-13.7-13.4-19.1c-5.8-5.4-14.9-11.1-27.7-17.4c-27.2-13.3-33-23.4-33-29.5
	c0-5.3,1.6-9.5,5-12.7c3.4-3.3,8.3-4.9,14.9-4.9c11.9,0,23.4,3.9,34.1,11.6l4.3,3l1.7-4.9l10-28.2l0.9-2.6l-2.2-1.7
	c-10.7-8.5-27.3-12.8-49.5-12.8c-17.3,0-31.7,5.1-42.9,15.1c-11.3,10.1-17,23.1-17,38.5c0,8.1,1.4,15.7,4.3,22.5
	c2.9,6.8,7,12.7,12.3,17.7c5.2,4.9,14.9,10.8,29.5,18.2c13.6,6.8,22.6,12.9,26.7,18.2c4,5,6,10.1,6,15.6c0,7-2.6,16.2-24.9,16.2
	c-11.6,0-23.7-4.3-35.9-12.9l-4-2.8l-1.9,4.6l-12.1,29.4l-1.3,3l2.8,1.8c14.4,9.3,30.9,14,48.8,14c20.7,0,37.5-5.2,50-15.4
	c12.7-10.4,19.2-23.9,19.2-40C1181.6,27.4,1180.1,19.3,1177,12.1z"/>
<path class="st2" d="M1678-87.4l-40.2,0c-2.4,0-4.5,3-4.8,8.5h-0.2V6.9c0,34.2-12.6,50.2-35.6,50.2c-22.4,0-35-16.9-35-50.2l-0.4-84
	c0-6.7-2.3-10.2-4.9-10.2h-40c1.7,7.4,1.3,17.1,1.3,18.4l0.1,72.4c0,61.7,28.7,88.7,77.5,88.7c50.5,0,80.7-28.4,80.7-88.1l0.2-72.9
	C1676.7-70.3,1676.3-80,1678-87.4z"/>
<path class="st1" d="M-189.8,246.4c5.9,2.9,9.8,5.6,11.6,7.9c1.7,2.2,2.6,4.4,2.6,6.7c0,3-1.1,7-10.8,7"/>
<path class="st1" d="M-183.8,197.9c-7.5,0-13.8,2.2-18.6,6.6"/>
<polyline class="st1" points="-185,304.5 -180.9,304.5 -180.9,308.2 -185,308.2 "/>
<polyline class="st1" points="-184.8,311.9 -181.1,311.9 -181.1,333.5 -184.8,333.5 "/>
</svg>
