<?xml version="1.0" encoding="utf-8"?>
<!-- Generator: Adobe Illustrator 26.0.1, SVG Export Plug-In . SVG Version: 6.00 Build 0)  -->
<svg version="1.1" id="Layer_3" xmlns="http://www.w3.org/2000/svg" xmlns:xlink="http://www.w3.org/1999/xlink" x="0px" y="0px"
	 viewBox="0 0 675 375" style="enable-background:new 0 0 675 375;" xml:space="preserve">
<style type="text/css">
	.st0{clip-path:url(#SVGID_00000010991873646164329320000012521971770014086845_);fill:#1A132D;}
	.st1{clip-path:url(#SVGID_00000020371401215521158110000002611126816069441466_);fill:#9C4A4F;}
	.st2{clip-path:url(#SVGID_00000043427567670862807860000015143372744929742496_);fill:#B39D87;}
	.st3{clip-path:url(#SVGID_00000083776102702829344550000017182241376272973191_);fill:#753C44;}
	.st4{clip-path:url(#SVGID_00000165236794311251126970000008152481410967282871_);fill:#998370;}
	.st5{clip-path:url(#SVGID_00000022534296016938899610000004056627208984942995_);fill:#A5A4AB;}
	.st6{clip-path:url(#SVGID_00000183243989409240266280000008741975075021960361_);fill:#A5A4AB;}
	.st7{clip-path:url(#SVGID_00000166677406086341773290000004793418970862648996_);fill:#A5A4AB;}
	.st8{clip-path:url(#SVGID_00000055677979196162922280000012005749795129533080_);fill:#A5A4AB;}
	.st9{clip-path:url(#SVGID_00000165195116493560521020000000674273462108528307_);fill:#B39D87;}
	.st10{opacity:0.67;}
	.st11{clip-path:url(#SVGID_00000085235916063107807260000017323545791488823981_);fill:#A5A4AB;}
	.st12{clip-path:url(#SVGID_00000007428847213085878720000015872899656234279577_);fill:#B39D87;}
	.st13{opacity:0.52;}
	.st14{fill:#111321;}
	.st15{fill:#F79F9F;}
	.st16{fill:#FFFFFF;}
	.st17{fill:#BFE2CC;}
	.st18{fill:#73BB48;}
	.st19{fill:#E3DC3F;}
	.st20{fill:#EA78AA;}
	.st21{fill:#F7825E;}
	.st22{clip-path:url(#SVGID_00000124143555665055590360000008356693158097992118_);fill:#FFFFFF;}
	.st23{clip-path:url(#SVGID_00000049209228417549486010000002515221862791656369_);fill:#FFFFFF;}
	.st24{clip-path:url(#SVGID_00000078044818316858910480000001675823295030708657_);}
	.st25{clip-path:url(#SVGID_00000139261936816769578170000015713156228147189128_);fill:#FFFFFF;}
	.st26{fill:#B8B63F;}
	.st27{fill:#4EAD49;}
	.st28{fill:#8CD5D9;}
	.st29{fill:#D799C1;}
	.st30{fill:#C84849;}
	.st31{fill:#D3BE56;}
</style>
<g>
	<g>
		<g>
			<defs>
				<rect id="SVGID_1_" x="-32.4" y="-0.8" width="776.1" height="432.8"/>
			</defs>
			<clipPath id="SVGID_00000002376852453561273750000013956589591454107544_">
				<use xlink:href="#SVGID_1_"  style="overflow:visible;"/>
			</clipPath>
			<path style="clip-path:url(#SVGID_00000002376852453561273750000013956589591454107544_);fill:#1A132D;" d="M-48.4-12.1
				l5.7,451.4l277.8,8.8c0,0-25.3-197.6,39-310.1S380.9-7,380.9-7L-48.4-12.1z"/>
		</g>
		<g>
			<defs>
				<rect id="SVGID_00000006672608128678689880000011850464333592746380_" x="-32.4" y="-0.8" width="776.1" height="432.8"/>
			</defs>
			<clipPath id="SVGID_00000073719176637842282890000010686397103729613970_">
				<use xlink:href="#SVGID_00000006672608128678689880000011850464333592746380_"  style="overflow:visible;"/>
			</clipPath>
			<path style="clip-path:url(#SVGID_00000073719176637842282890000010686397103729613970_);fill:#9C4A4F;" d="M514.1-9.6L693.2,133
				l76.9,225.1l-21.8,86.3l-497.1-2.5c0,0-42.5-171.3-8-256.3S389-14.6,389-14.6L514.1-9.6z"/>
		</g>
		<g>
			<defs>
				<rect id="SVGID_00000155113762090822553560000003458704396984093061_" x="-32.4" y="-0.8" width="776.1" height="432.8"/>
			</defs>
			<clipPath id="SVGID_00000107581350314178611190000004604452280072692631_">
				<use xlink:href="#SVGID_00000155113762090822553560000003458704396984093061_"  style="overflow:visible;"/>
			</clipPath>
			<path style="clip-path:url(#SVGID_00000107581350314178611190000004604452280072692631_);fill:#B39D87;" d="M233.9,172.7
				c0,0-19.6,36.8-26,93.9c-10.2,91,12.8,168.9,12.8,168.9l30.3,17.3c0,0-24.8-115.8-23.8-150.3S233.9,172.7,233.9,172.7z"/>
		</g>
		<g>
			<defs>
				<rect id="SVGID_00000090974152541327105310000017453812142703954579_" x="-32.4" y="-0.8" width="776.1" height="432.8"/>
			</defs>
			<clipPath id="SVGID_00000058566715560927052330000004551539533347116442_">
				<use xlink:href="#SVGID_00000090974152541327105310000017453812142703954579_"  style="overflow:visible;"/>
			</clipPath>
			<path style="clip-path:url(#SVGID_00000058566715560927052330000004551539533347116442_);fill:#753C44;" d="M517.5-1.2
				c0,0,38.8,46.7,58.7,66.1c19.9,19.5,93.5,74.1,94.4,83.9c0.5,5.6-8.2,33.9-9.2,75.6c-0.7,27.8,5.1,66.7,19.9,90.6
				s46.4,43.9,46.4,43.9s7.1-28.3,12.8-31.7s11.7-6.7,11.7-6.7l-1.5-225.6c0,0-8.7,15-19.9,16.1s-17.3,4.4-26-23.3
				S689.5,21,684.9,13.8s9.8-32,9.8-32L517.5-1.2z"/>
		</g>
		<g>
			<defs>
				<rect id="SVGID_00000082341708411716387110000001180346326550643112_" x="-32.4" y="-0.8" width="776.1" height="432.8"/>
			</defs>
			<clipPath id="SVGID_00000021103693401823309540000012224062137017697727_">
				<use xlink:href="#SVGID_00000082341708411716387110000001180346326550643112_"  style="overflow:visible;"/>
			</clipPath>
			<path style="clip-path:url(#SVGID_00000021103693401823309540000012224062137017697727_);fill:#998370;" d="M355.7-4.7l162.4-0.1
				c0,0,48,60.8,59.7,70.8s92.9,67.2,89.3,78.4c-3.6,11.1-8.7,27.8-23,34.5s-20.4,13.9-40.3,7.8c-19.9-6.1-109.7-61.1-131.6-73.9
				s-90.8-43.9-104.6-40.6s-34.2,14.4-48.5,31.1s-43.9,70.6-50.5,92.3s-18.9,47.8-16.3,78.9c2.6,31.1,5.6,70.6,30.6,93.9
				s70.9,35,103.1,22.2s111.2-50,120.9-41.7s9.7,6.7,4.6,14.4c-5.1,7.8-53.6,36.7-75,43.3c-21.4,6.7-75,33.4-75,33.4l-111.4-1.1
				c0,0-33-146.7-14.7-230.1s42.9-121.1,60.7-143.9C314,42.1,355.7-4.7,355.7-4.7z"/>
		</g>
		<g>
			<defs>
				<rect id="SVGID_00000044147389697751950630000011125265071973566614_" x="-32.4" y="-0.8" width="776.1" height="432.8"/>
			</defs>
			<clipPath id="SVGID_00000142139209086382487170000001077560190225048223_">
				<use xlink:href="#SVGID_00000044147389697751950630000011125265071973566614_"  style="overflow:visible;"/>
			</clipPath>
			<path style="clip-path:url(#SVGID_00000142139209086382487170000001077560190225048223_);fill:#A5A4AB;" d="M511.4-1.2
				c0,0,29.6,43.3,68.9,75c33.4,26.9,80.4,59.2,81.1,70.9c0.8,11.7-7.4,23.3-20.4,29.2c-13,5.8-25.5,12.5-40.1,8.3
				c-14.5-4.2-77.3-40.8-102.6-57.5c-25.3-16.7-76.8-45.8-101-52.5C377.2,66.6,361.2,61,342,76s-49.5,49.5-64.8,84.5
				s-35,90.9-28.1,136.7s19.6,65.9,41.1,85c21.4,19.2,78.8,22.8,110.5,10c37.2-15,56.8-24.9,75.5-31.7c21.4-7.8,33.7-8.6,32.1-1.1
				c-1.5,7.5-11.5,11.9-29.1,22c-17.6,10-136.2,58.7-136.2,58.7h23c0,0,76.9-28.6,94.1-37c25.8-12.5,67.1-34.7,61-49.7
				s-25.5-11.1-44.9-5c-49.3,15.6-73.3,35.5-97.5,37.8c-35.2,3.3-67.3-3.3-82.7-13.3c-19.6-12.8-45.6-55.4-37.2-115.6
				c11.2-81.1,46.4-129.5,66.3-149.5s31.1-29.2,51-28.3c19.9,0.8,53.6,13.9,102.6,45.6s99.2,61.4,113.8,65.6
				c14.5,4.2,38.5,0.3,48.5-5.6c9.9-5.8,36.7-25.3,32.1-39.5c-4.6-14.2-21.5-27.1-61.2-58.4c-81.1-63.9-85.2-88.4-85.2-88.4
				L511.4-1.2L511.4-1.2z"/>
		</g>
		<g>
			<defs>
				<rect id="SVGID_00000006677691775843873920000011294032590292905603_" x="-32.4" y="-0.8" width="776.1" height="432.8"/>
			</defs>
			<clipPath id="SVGID_00000048469812512564885000000011019739963870191543_">
				<use xlink:href="#SVGID_00000006677691775843873920000011294032590292905603_"  style="overflow:visible;"/>
			</clipPath>
			<path style="clip-path:url(#SVGID_00000048469812512564885000000011019739963870191543_);fill:#A5A4AB;" d="M259.6,135.2
				c38.3-88.1,108.8-141,108.8-141l-15.1,0.4c0,0-68.2,51.9-106.5,140c-52,119.6-2.9,303.9-2.9,303.9l12-0.2
				C253.5,427.8,209.3,251.1,259.6,135.2z"/>
		</g>
		<g>
			<defs>
				<rect id="SVGID_00000160893951949514967850000014051445841207529348_" x="-32.4" y="-0.8" width="776.1" height="432.8"/>
			</defs>
			<clipPath id="SVGID_00000116916245012212149210000009712275955505440697_">
				<use xlink:href="#SVGID_00000160893951949514967850000014051445841207529348_"  style="overflow:visible;"/>
			</clipPath>
			<path style="clip-path:url(#SVGID_00000116916245012212149210000009712275955505440697_);fill:#A5A4AB;" d="M408.6,438.3
				c0,0,75.3-32.7,91.1-38.3c15.8-5.6,42.4-15.1,66.3-16.1c27-1.1,51,1.1,64.8,5.6c13.8,4.4,27,8.9,32.1,17.2s-3.6,30.5-3.6,30.5
				l-16.8,0.6c0,0,12.2-16,11.2-22.1s-8.2-10-23-14.4s-40.1-8.5-60.7-7.8c-47.5,1.7-132.9,44.4-132.9,44.4L408.6,438.3z"/>
		</g>
		<g>
			<defs>
				<rect id="SVGID_00000178917501218249442560000005716367437125979327_" x="-32.4" y="-0.8" width="776.1" height="432.8"/>
			</defs>
			<clipPath id="SVGID_00000172406254389352945070000000412382649724333991_">
				<use xlink:href="#SVGID_00000178917501218249442560000005716367437125979327_"  style="overflow:visible;"/>
			</clipPath>
			<path style="clip-path:url(#SVGID_00000172406254389352945070000000412382649724333991_);fill:#A5A4AB;" d="M752.8,314.4
				c0,0-14.8,1.7-21.4,16.1C724.7,345,717,381.1,713,400c-4.1,18.9-5.6,36.5-5.6,36.5h11.2c0,0,7.9-52.3,12.8-77.1
				c7.1-36.1,19.4-33.9,19.4-33.9L752.8,314.4z"/>
		</g>
		<g>
			<defs>
				<rect id="SVGID_00000079484701611871982300000010219894724607667383_" x="-32.4" y="-0.8" width="776.1" height="432.8"/>
			</defs>
			<clipPath id="SVGID_00000017478786324106063910000000613840378138333878_">
				<use xlink:href="#SVGID_00000079484701611871982300000010219894724607667383_"  style="overflow:visible;"/>
			</clipPath>
			<path style="clip-path:url(#SVGID_00000017478786324106063910000000613840378138333878_);fill:#B39D87;" d="M607.1,514.7"/>
		</g>
	</g>
	<g class="st10">
		<g>
			<defs>
				<rect id="SVGID_00000155848958132724823560000003446094409775221402_" x="-32.4" y="-0.8" width="776.1" height="432.8"/>
			</defs>
			<clipPath id="SVGID_00000170272800602281310180000008094872763829169823_">
				<use xlink:href="#SVGID_00000155848958132724823560000003446094409775221402_"  style="overflow:visible;"/>
			</clipPath>
			<path style="clip-path:url(#SVGID_00000170272800602281310180000008094872763829169823_);fill:#A5A4AB;" d="M259.6,135.2
				c38.3-88.1,108.8-141,108.8-141l-15.1,0.4c0,0-68.2,51.9-106.5,140c-52,119.6-2.9,303.9-2.9,303.9l12-0.2
				C253.5,427.8,209.3,251.1,259.6,135.2z"/>
		</g>
		<g>
			<defs>
				<rect id="SVGID_00000155867094695909325940000003827469003981769625_" x="-32.4" y="-0.8" width="776.1" height="432.8"/>
			</defs>
			<clipPath id="SVGID_00000112628742803558387960000013449891504950979759_">
				<use xlink:href="#SVGID_00000155867094695909325940000003827469003981769625_"  style="overflow:visible;"/>
			</clipPath>
			<path style="clip-path:url(#SVGID_00000112628742803558387960000013449891504950979759_);fill:#B39D87;" d="M607.1,514.7"/>
		</g>
	</g>
</g>
<g>
	<g class="st13">
		<path class="st14" d="M171,302.9H12.7c-1.7,0-3-1.3-3-3V177.4c0-1.7,1.3-3,3-3H171c1.6,0,3,1.3,3,3v122.5
			C174,301.6,172.6,302.9,171,302.9z"/>
		<path class="st15" d="M171,303.9H12.7c-2.2,0-4-1.8-4-4V177.4c0-2.2,1.8-4,4-4H171c2.2,0,4,1.8,4,4v122.5
			C175,302.1,173.2,303.9,171,303.9z M12.7,175.4c-1.1,0-2,0.9-2,2v122.5c0,1.1,0.9,2,2,2H171c1.1,0,2-0.9,2-2V177.4
			c0-1.1-0.9-2-2-2H12.7z"/>
	</g>
	<path class="st15" d="M171,303.9H12.7c-2.2,0-4-1.8-4-4V177.4c0-2.2,1.8-4,4-4H171c2.2,0,4,1.8,4,4v122.5
		C175,302.1,173.2,303.9,171,303.9z M12.7,175.4c-1.1,0-2,0.9-2,2v122.5c0,1.1,0.9,2,2,2H171c1.1,0,2-0.9,2-2V177.4c0-1.1-0.9-2-2-2
		H12.7z"/>
</g>
<rect x="90.8" y="156.5" class="st15" width="2" height="18.8"/>
<g>
	<g>
		<g class="st13">
			<path class="st14" d="M493.5,312.3H341.8c-1.6,0-3-1.4-3-3V164.1c0-1.7,1.4-3,3-3h151.8c1.6,0,3,1.3,3,3v145.3
				C496.5,311,495.2,312.3,493.5,312.3z"/>
			<path class="st15" d="M493.5,313.3H341.8c-2.2,0-4-1.8-4-4V164.1c0-2.2,1.8-4,4-4h151.8c2.2,0,4,1.8,4,4v145.3
				C497.5,311.6,495.7,313.3,493.5,313.3z M341.8,162.1c-1.1,0-2,0.9-2,2v145.3c0,1.1,0.9,2,2,2h151.8c1.1,0,2-0.9,2-2V164.1
				c0-1.1-0.9-2-2-2H341.8z"/>
		</g>
		<g class="st13">
			<path class="st14" d="M493.5,312.3H341.8c-1.6,0-3-1.4-3-3V164.1c0-1.7,1.4-3,3-3h151.8c1.6,0,3,1.3,3,3v145.3
				C496.5,311,495.2,312.3,493.5,312.3z"/>
			<path class="st15" d="M493.5,313.3H341.8c-2.2,0-4-1.8-4-4V164.1c0-2.2,1.8-4,4-4h151.8c2.2,0,4,1.8,4,4v145.3
				C497.5,311.6,495.7,313.3,493.5,313.3z M341.8,162.1c-1.1,0-2,0.9-2,2v145.3c0,1.1,0.9,2,2,2h151.8c1.1,0,2-0.9,2-2V164.1
				c0-1.1-0.9-2-2-2H341.8z"/>
		</g>
		<path class="st15" d="M493.5,313.3H341.8c-2.2,0-4-1.8-4-4V164.1c0-2.2,1.8-4,4-4h151.8c2.2,0,4,1.8,4,4v145.3
			C497.5,311.6,495.7,313.3,493.5,313.3z M341.8,162.1c-1.1,0-2,0.9-2,2v145.3c0,1.1,0.9,2,2,2h151.8c1.1,0,2-0.9,2-2V164.1
			c0-1.1-0.9-2-2-2H341.8z"/>
	</g>
	<rect x="416.6" y="139.8" class="st15" width="2" height="22.4"/>
</g>
<g>
	<g>
		<g class="st13">
			<path class="st14" d="M666,255.6H504.8c-1.6,0-3-1.4-3-3V114.7c0-1.7,1.4-3,3-3H666c1.7,0,3,1.3,3,3v137.9
				C669,254.2,667.7,255.6,666,255.6z"/>
			<path class="st15" d="M666,256.6H504.8c-2.2,0-4-1.8-4-4V114.7c0-2.2,1.8-4,4-4H666c2.2,0,4,1.8,4,4v137.9
				C670,254.8,668.2,256.6,666,256.6z M504.8,112.7c-1.1,0-2,0.9-2,2v137.9c0,1.1,0.9,2,2,2H666c1.1,0,2-0.9,2-2V114.7
				c0-1.1-0.9-2-2-2H504.8z"/>
		</g>
		<g class="st13">
			<path class="st14" d="M666,255.6H504.8c-1.6,0-3-1.4-3-3V114.7c0-1.7,1.4-3,3-3H666c1.7,0,3,1.3,3,3v137.9
				C669,254.2,667.7,255.6,666,255.6z"/>
			<path class="st15" d="M666,256.6H504.8c-2.2,0-4-1.8-4-4V114.7c0-2.2,1.8-4,4-4H666c2.2,0,4,1.8,4,4v137.9
				C670,254.8,668.2,256.6,666,256.6z M504.8,112.7c-1.1,0-2,0.9-2,2v137.9c0,1.1,0.9,2,2,2H666c1.1,0,2-0.9,2-2V114.7
				c0-1.1-0.9-2-2-2H504.8z"/>
		</g>
		<path class="st15" d="M666,256.6H504.8c-2.2,0-4-1.8-4-4V114.7c0-2.2,1.8-4,4-4H666c2.2,0,4,1.8,4,4v137.9
			C670,254.8,668.2,256.6,666,256.6z M504.8,112.7c-1.1,0-2,0.9-2,2v137.9c0,1.1,0.9,2,2,2H666c1.1,0,2-0.9,2-2V114.7
			c0-1.1-0.9-2-2-2H504.8z"/>
	</g>
	<rect x="584.4" y="90.3" class="st15" width="2" height="22.4"/>
</g>
<g>
	<g>
		<g class="st13">
			<path class="st14" d="M331.6,302.9H180.5c-1.6,0-3-1.3-3-3V177c0-1.7,1.4-3,3-3h151.1c1.6,0,3,1.3,3,3v123
				C334.6,301.6,333.3,302.9,331.6,302.9z"/>
			<path class="st15" d="M331.6,303.9H180.5c-2.2,0-4-1.8-4-4V177c0-2.2,1.8-4,4-4h151.1c2.2,0,4,1.8,4,4v123
				C335.6,302.1,333.8,303.9,331.6,303.9z M180.5,175c-1.1,0-2,0.9-2,2v123c0,1.1,0.9,2,2,2h151.1c1.1,0,2-0.9,2-2V177
				c0-1.1-0.9-2-2-2H180.5z"/>
		</g>
		<path class="st15" d="M331.6,303.9H180.5c-2.2,0-4-1.8-4-4V177c0-2.2,1.8-4,4-4h151.1c2.2,0,4,1.8,4,4v123
			C335.6,302.1,333.8,303.9,331.6,303.9z M180.5,175c-1.1,0-2,0.9-2,2v123c0,1.1,0.9,2,2,2h151.1c1.1,0,2-0.9,2-2V177
			c0-1.1-0.9-2-2-2H180.5z"/>
	</g>
	<rect x="255.1" y="161.6" class="st15" width="2" height="13.3"/>
</g>
<g>
	<rect x="87.9" y="219.1" class="st16" width="15.6" height="6"/>
	<polygon class="st16" points="101.6,222.1 101.6,217.6 105.6,219.8 109.5,222.1 105.6,224.4 101.6,226.7 	"/>
</g>
<g>
	<rect x="63.9" y="219.1" class="st16" width="14.6" height="6"/>
	<polygon class="st16" points="77.6,222.1 77.6,217.6 81.6,219.8 85.5,222.1 81.6,224.4 77.6,226.7 	"/>
</g>
<g>
	<rect x="142" y="219.1" class="st16" width="15.6" height="6"/>
	<polygon class="st16" points="155.7,222.1 155.7,217.6 159.7,219.8 163.6,222.1 159.7,224.4 155.7,226.7 	"/>
</g>
<g>
	<rect x="165.6" y="219.1" class="st16" width="15.6" height="6"/>
	<polygon class="st16" points="179.3,222.1 179.3,217.6 183.2,219.8 187.1,222.1 183.2,224.4 179.3,226.7 	"/>
</g>
<g>
	<rect x="119.1" y="219.1" class="st16" width="15.6" height="6"/>
	<polygon class="st16" points="132.8,222.1 132.8,217.6 136.7,219.8 140.7,222.1 136.7,224.4 132.8,226.7 	"/>
</g>
<g>
	<path class="st16" d="M99,193.4v-1.1l1-0.9c1.7-1.5,2.5-2.4,2.6-3.3c0-0.6-0.4-1.1-1.3-1.1c-0.7,0-1.3,0.3-1.7,0.6l-0.5-1.3
		c0.6-0.4,1.5-0.8,2.6-0.8c1.8,0,2.7,1,2.7,2.4c0,1.3-0.9,2.4-2.1,3.4l-0.7,0.6l0,0h2.9v1.5L99,193.4L99,193.4z"/>
</g>
<g>
	<path class="st17" d="M108.2,193.4v-8.1h2.1l1.7,3c0.5,0.9,1,1.9,1.3,2.8l0,0c-0.1-1.1-0.2-2.2-0.2-3.4v-2.4h1.7v8.1H113l-1.7-3.1
		c-0.5-0.9-1-1.9-1.4-2.9l0,0c0,1.1,0.1,2.2,0.1,3.5v2.4L108.2,193.4L108.2,193.4z"/>
	<path class="st17" d="M118.4,191.4l-0.6,2.1h-1.9l2.5-8.1h2.4l2.5,8.1h-2l-0.6-2.1H118.4z M120.4,190l-0.5-1.7
		c-0.1-0.5-0.3-1.1-0.4-1.6l0,0c-0.1,0.5-0.2,1.1-0.4,1.6l-0.5,1.7H120.4z"/>
	<path class="st17" d="M124.4,185.5c0.7-0.1,1.5-0.2,2.5-0.2c1.5,0,2.5,0.3,3.3,0.9c0.8,0.6,1.4,1.6,1.4,3c0,1.5-0.6,2.6-1.3,3.3
		c-0.9,0.7-2.1,1-3.7,1c-0.9,0-1.6-0.1-2.1-0.1L124.4,185.5L124.4,185.5z M126.2,192c0.2,0,0.4,0,0.6,0c1.7,0,2.7-0.9,2.7-2.8
		c0-1.7-1-2.6-2.5-2.6c-0.4,0-0.7,0-0.8,0.1V192z"/>
	<path class="st17" d="M134.5,185.3v3.1h3v-3.1h1.8v8.1h-1.8V190h-3v3.4h-1.8v-8.1L134.5,185.3L134.5,185.3z"/>
</g>
<g>
	<g>
		<path class="st16" d="M285.5,194.4v-1.1l1-0.9c1.7-1.5,2.5-2.4,2.6-3.3c0-0.6-0.4-1.1-1.3-1.1c-0.7,0-1.3,0.3-1.7,0.6l-0.5-1.3
			c0.6-0.4,1.5-0.8,2.6-0.8c1.8,0,2.7,1,2.7,2.4c0,1.3-0.9,2.4-2.1,3.4l-0.7,0.6l0,0h2.9v1.5L285.5,194.4L285.5,194.4z"/>
	</g>
	<g>
		<path class="st17" d="M294.7,194.4v-8.1h2.1l1.7,3c0.5,0.9,1,1.9,1.3,2.8l0,0c-0.1-1.1-0.2-2.2-0.2-3.4v-2.4h1.7v8.1h-1.9
			l-1.7-3.1c-0.5-0.9-1-1.9-1.4-2.9l0,0c0,1.1,0.1,2.2,0.1,3.5v2.4L294.7,194.4L294.7,194.4z"/>
		<path class="st17" d="M304.9,192.4l-0.6,2.1h-1.9l2.5-8.1h2.4l2.5,8.1h-2l-0.6-2.1H304.9z M306.9,191l-0.5-1.7
			c-0.1-0.5-0.3-1.1-0.4-1.6l0,0c-0.1,0.5-0.2,1.1-0.4,1.6l-0.5,1.7H306.9z"/>
		<path class="st17" d="M310.8,186.5c0.7-0.1,1.5-0.2,2.5-0.2c1.5,0,2.5,0.3,3.3,0.9c0.8,0.6,1.4,1.6,1.4,3c0,1.5-0.6,2.6-1.3,3.3
			c-0.9,0.7-2.1,1-3.7,1c-0.9,0-1.6-0.1-2.1-0.1L310.8,186.5L310.8,186.5z M312.7,193c0.2,0,0.4,0,0.6,0c1.7,0,2.7-0.9,2.7-2.8
			c0-1.7-1-2.6-2.5-2.6c-0.4,0-0.7,0-0.8,0.1L312.7,193L312.7,193z"/>
		<path class="st17" d="M321,186.3v3.1h3v-3.1h1.8v8.1H324V191h-3v3.4h-1.8v-8.1L321,186.3L321,186.3z"/>
	</g>
</g>
<g>
	<path class="st16" d="M405.4,169.2c-0.2,0-0.4,0-0.7,0c-1.6,0.1-2.3,1-2.5,1.9l0,0c0.4-0.4,0.9-0.6,1.7-0.6c1.3,0,2.4,0.9,2.4,2.5
		c0,1.5-1.2,2.8-2.9,2.8c-2.1,0-3.1-1.5-3.1-3.4c0-1.5,0.5-2.7,1.4-3.5c0.8-0.7,1.8-1.1,3-1.2c0.3,0,0.6,0,0.7,0V169.2z
		 M404.4,173.2c0-0.7-0.4-1.3-1.2-1.3c-0.5,0-0.9,0.3-1.1,0.7c0,0.1-0.1,0.2-0.1,0.5c0,0.8,0.4,1.6,1.3,1.6
		C404,174.5,404.4,173.9,404.4,173.2z"/>
</g>
<g>
	<path class="st17" d="M409.7,175.7v-8.1h2.1l1.7,3c0.5,0.9,1,1.9,1.3,2.8l0,0c-0.1-1.1-0.2-2.2-0.2-3.4v-2.4h1.7v8.1h-1.9l-1.7-3.1
		c-0.5-0.9-1-1.9-1.4-2.9l0,0c0,1.1,0.1,2.2,0.1,3.5v2.4L409.7,175.7L409.7,175.7z"/>
	<path class="st17" d="M419.8,173.7l-0.6,2.1h-1.9l2.5-8.1h2.4l2.5,8.1h-2l-0.6-2.1H419.8z M421.9,172.3l-0.5-1.7
		c-0.1-0.5-0.3-1.1-0.4-1.6l0,0c-0.1,0.5-0.2,1.1-0.4,1.6l-0.5,1.7H421.9z"/>
	<path class="st17" d="M425.8,167.8c0.7-0.1,1.5-0.2,2.5-0.2c1.5,0,2.5,0.3,3.3,0.9c0.8,0.6,1.4,1.6,1.4,3c0,1.5-0.6,2.6-1.3,3.3
		c-0.9,0.7-2.1,1-3.7,1c-0.9,0-1.6-0.1-2.1-0.1L425.8,167.8L425.8,167.8z M427.7,174.4c0.2,0,0.4,0,0.6,0c1.7,0,2.7-0.9,2.7-2.8
		c0-1.7-1-2.6-2.5-2.6c-0.4,0-0.7,0-0.8,0.1L427.7,174.4L427.7,174.4z"/>
	<path class="st17" d="M436,167.7v3.1h3v-3.1h1.8v8.1H439v-3.4h-3v3.4h-1.8v-8.1H436z"/>
</g>
<g>
	<g>
		<path class="st16" d="M400.5,187.1V186l1-0.9c1.7-1.5,2.5-2.4,2.6-3.3c0-0.6-0.4-1.1-1.3-1.1c-0.7,0-1.3,0.3-1.7,0.6l-0.5-1.3
			c0.6-0.4,1.5-0.8,2.6-0.8c1.8,0,2.7,1,2.7,2.4c0,1.3-0.9,2.4-2.1,3.4l-0.7,0.6l0,0h2.9v1.5L400.5,187.1L400.5,187.1z"/>
	</g>
	<g>
		<path class="st18" d="M409.7,179h4.9v1.5h-3.1v1.8h2.9v1.5h-2.9v3.2h-1.8V179z"/>
		<path class="st18" d="M417.1,185l-0.6,2.1h-1.9l2.5-8.1h2.4l2.5,8.1h-2l-0.6-2.1H417.1z M419.1,183.6l-0.5-1.7
			c-0.1-0.5-0.3-1.1-0.4-1.6l0,0c-0.1,0.5-0.2,1.1-0.4,1.6l-0.5,1.7H419.1z"/>
		<path class="st18" d="M423.1,179.1c0.7-0.1,1.5-0.2,2.5-0.2c1.5,0,2.5,0.3,3.3,0.9c0.8,0.6,1.4,1.6,1.4,3c0,1.5-0.6,2.6-1.3,3.3
			c-0.9,0.7-2.1,1-3.7,1c-0.9,0-1.6-0.1-2.1-0.1L423.1,179.1L423.1,179.1z M424.9,185.7c0.2,0,0.4,0,0.6,0c1.7,0,2.7-0.9,2.7-2.8
			c0-1.7-1-2.6-2.5-2.6c-0.4,0-0.7,0-0.8,0.1L424.9,185.7L424.9,185.7z"/>
		<path class="st18" d="M433.2,179v3.1h3V179h1.8v8.1h-1.8v-3.4h-3v3.4h-1.8V179H433.2z"/>
		<path class="st18" d="M439.1,188.2l0.7-0.7c0.9-0.8,1.4-1.2,1.4-1.7c0-0.3-0.3-0.6-0.7-0.6c-0.4,0-0.8,0.2-1,0.3l-0.4-0.9
			c0.4-0.3,1-0.5,1.7-0.5c1.2,0,1.8,0.6,1.8,1.5s-0.7,1.4-1.4,2l-0.3,0.2l0,0h1.8v1H439v-0.6H439.1z"/>
	</g>
</g>
<g>
	<path class="st19" d="M26.6,224.4c-0.6,0.2-1.6,0.5-2.7,0.5c-1.5,0-2.5-0.4-3.3-1.1c-0.7-0.7-1.2-1.8-1.1-2.9c0-2.7,2-4.2,4.6-4.2
		c1,0,1.8,0.2,2.2,0.4l-0.4,1.5c-0.4-0.2-1-0.3-1.9-0.3c-1.5,0-2.7,0.9-2.7,2.6c0,1.7,1,2.7,2.5,2.7c0.4,0,0.8,0,0.9-0.1v-1.7h-1.2
		v-1.4h3v4H26.6z"/>
	<path class="st19" d="M28,216.2h1.8v8.5H28V216.2z"/>
	<path class="st19" d="M36.9,222.9c0,0.8,0,1.4,0,1.9h-1.6l-0.1-0.8l0,0c-0.2,0.4-0.8,1-1.8,1c-1.2,0-2.1-0.7-2.1-2.6V219h1.8v3.2
		c0,0.9,0.3,1.4,0.9,1.4c0.5,0,0.8-0.3,0.9-0.6c0-0.1,0.1-0.3,0.1-0.4v-3.5h1.8L36.9,222.9L36.9,222.9z"/>
	<path class="st19" d="M42.7,224.6c-0.3,0.1-0.9,0.3-1.6,0.3c-1.9,0-3.1-1.2-3.1-3c0-1.7,1.2-3.1,3.4-3.1c0.5,0,1,0.1,1.4,0.2
		l-0.3,1.4c-0.2-0.1-0.5-0.2-1-0.2c-1,0-1.6,0.7-1.6,1.6c0,1.1,0.7,1.6,1.6,1.6c0.4,0,0.8-0.1,1-0.2L42.7,224.6z"/>
	<path class="st19" d="M49.4,221.8c0,2.1-1.5,3.1-3.1,3.1c-1.7,0-3-1.1-3-3s1.2-3.1,3.1-3.1C48.2,218.8,49.4,220,49.4,221.8z
		 M45.2,221.8c0,1,0.4,1.8,1.2,1.8c0.7,0,1.2-0.7,1.2-1.8c0-0.9-0.3-1.8-1.2-1.8C45.5,220.1,45.2,221,45.2,221.8z"/>
	<path class="st19" d="M50.5,223.2c0.3,0.2,1,0.4,1.6,0.4s0.8-0.2,0.8-0.5s-0.2-0.4-0.9-0.7c-1.2-0.4-1.7-1.1-1.7-1.8
		c0-1.1,0.9-1.9,2.4-1.9c0.7,0,1.3,0.2,1.7,0.3l-0.3,1.3c-0.3-0.1-0.8-0.3-1.3-0.3c-0.4,0-0.7,0.2-0.7,0.5s0.2,0.4,0.9,0.7
		c1.1,0.4,1.6,0.9,1.6,1.8c0,1.1-0.9,1.9-2.5,1.9c-0.8,0-1.5-0.2-1.9-0.4L50.5,223.2z"/>
	<path class="st19" d="M57.1,222.4c0.1,0.8,0.8,1.1,1.7,1.1c0.6,0,1.1-0.1,1.6-0.2l0.2,1.2c-0.6,0.2-1.3,0.4-2.1,0.4
		c-2,0-3.1-1.2-3.1-3c0-1.5,0.9-3.1,3-3.1c1.9,0,2.6,1.5,2.6,2.9c0,0.3,0,0.6-0.1,0.7L57.1,222.4L57.1,222.4z M59.3,221.2
		c0-0.4-0.2-1.2-1-1.2s-1.1,0.7-1.1,1.2H59.3z"/>
</g>
<g>
	<path class="st16" d="M191.6,224.8v-1.1l1-0.9c1.7-1.5,2.5-2.4,2.6-3.3c0-0.6-0.4-1.1-1.3-1.1c-0.7,0-1.3,0.3-1.7,0.6l-0.5-1.3
		c0.6-0.4,1.5-0.8,2.6-0.8c1.8,0,2.7,1,2.7,2.4c0,1.3-0.9,2.4-2.1,3.4l-0.7,0.6l0,0h2.9v1.5L191.6,224.8L191.6,224.8z"/>
	<path class="st16" d="M201,216.8c0.6-0.1,1.4-0.2,2.5-0.2s1.9,0.2,2.5,0.6c0.5,0.4,0.9,1.1,0.9,1.9c0,0.8-0.3,1.5-0.7,1.9
		c-0.6,0.6-1.5,0.9-2.6,0.9c-0.2,0-0.5,0-0.6,0v2.9h-2V216.8z M202.8,220.5c0.2,0,0.3,0,0.6,0c1,0,1.6-0.5,1.6-1.3
		c0-0.7-0.5-1.2-1.4-1.2c-0.4,0-0.6,0-0.8,0.1L202.8,220.5L202.8,220.5z"/>
	<path class="st16" d="M209.3,218.9l0.9,2.9c0.1,0.3,0.2,0.8,0.3,1.1l0,0c0.1-0.3,0.2-0.8,0.3-1.1l0.7-2.9h2l-1.4,3.9
		c-0.8,2.3-1.4,3.3-2.1,3.9c-0.6,0.6-1.3,0.7-1.8,0.8l-0.4-1.5c0.2,0,0.5-0.1,0.8-0.3c0.3-0.1,0.6-0.4,0.8-0.7
		c0.1-0.1,0.1-0.2,0.1-0.3s0-0.2-0.1-0.3l-2.1-5.4L209.3,218.9L209.3,218.9z"/>
	<path class="st16" d="M214.2,220.8c0-0.9,0-1.4,0-1.9h1.6l0.1,1.1l0,0c0.3-0.9,1-1.2,1.6-1.2c0.2,0,0.3,0,0.4,0v1.7
		c-0.1,0-0.3,0-0.5,0c-0.7,0-1.1,0.4-1.2,0.9c0,0.1,0,0.3,0,0.4v3h-1.8v-4H214.2z"/>
	<path class="st16" d="M224.3,222.9c0,0.8,0,1.4,0,1.9h-1.6l-0.1-0.8l0,0c-0.2,0.4-0.8,1-1.8,1c-1.2,0-2.1-0.7-2.1-2.6V219h1.8v3.2
		c0,0.9,0.3,1.4,0.9,1.4c0.5,0,0.8-0.3,0.9-0.6c0-0.1,0.1-0.3,0.1-0.4v-3.5h1.8v3.8H224.3z"/>
	<path class="st16" d="M227.1,218.9l0.8,2.7c0.1,0.5,0.3,1,0.3,1.4l0,0c0.1-0.5,0.2-0.9,0.3-1.4l0.8-2.7h1.9l-2.2,5.9h-1.8l-2.1-5.9
		H227.1z"/>
	<path class="st16" d="M235.4,224.8l-0.1-0.6l0,0c-0.4,0.5-1,0.7-1.7,0.7c-1.2,0-1.9-0.9-1.9-1.8c0-1.5,1.4-2.3,3.4-2.2v-0.1
		c0-0.3-0.2-0.8-1.1-0.8c-0.6,0-1.2,0.2-1.6,0.4l-0.3-1.2c0.4-0.2,1.2-0.5,2.3-0.5c2,0,2.6,1.2,2.6,2.5v2c0,0.6,0,1.1,0.1,1.4h-1.7
		V224.8z M235.1,222c-1,0-1.7,0.2-1.7,0.9c0,0.5,0.3,0.7,0.7,0.7c0.5,0,0.8-0.3,0.9-0.7c0-0.1,0-0.2,0-0.3V222H235.1z"/>
	<path class="st16" d="M240.3,217.2v1.7h1.3v1.3h-1.3v2.1c0,0.7,0.2,1,0.7,1c0.2,0,0.4,0,0.5,0v1.4c-0.2,0.1-0.7,0.2-1.2,0.2
		c-0.6,0-1.1-0.2-1.4-0.5c-0.3-0.3-0.5-0.9-0.5-1.7v-2.4h-0.8V219h0.8v-1.3L240.3,217.2z"/>
	<path class="st16" d="M244,222.4c0.1,0.8,0.8,1.1,1.7,1.1c0.6,0,1.1-0.1,1.6-0.2l0.2,1.2c-0.6,0.2-1.3,0.4-2.1,0.4
		c-2,0-3.1-1.2-3.1-3c0-1.5,0.9-3.1,3-3.1c1.9,0,2.6,1.5,2.6,2.9c0,0.3,0,0.6-0.1,0.7L244,222.4L244,222.4z M246.2,221.2
		c0-0.4-0.2-1.2-1-1.2s-1.1,0.7-1.1,1.2H246.2z"/>
</g>
<g>
	<path class="st16" d="M66,149.3c-0.7,0.2-2,0.6-3.3,0.6c-1.8,0-3.1-0.5-4-1.3c-0.9-0.9-1.4-2.2-1.4-3.6c0-3.3,2.4-5.2,5.7-5.2
		c1.3,0,2.3,0.3,2.8,0.5l-0.5,1.8c-0.5-0.2-1.2-0.4-2.3-0.4c-1.9,0-3.3,1.1-3.3,3.2c0,2,1.3,3.3,3.1,3.3c0.5,0,0.9-0.1,1.1-0.1V146
		h-1.5v-1.8H66V149.3z"/>
	<path class="st16" d="M67.7,139.3H70v10.5h-2.2v-10.5H67.7z"/>
	<path class="st16" d="M73.4,142.6l1.1,3.5c0.1,0.4,0.3,1,0.4,1.3l0,0c0.1-0.4,0.2-0.9,0.3-1.3l0.9-3.5h2.4l-1.7,4.7
		c-1,2.9-1.7,4-2.5,4.7s-1.6,0.9-2.2,1l-0.5-1.9c0.3,0,0.6-0.2,1-0.4c0.3-0.2,0.7-0.5,0.9-0.9c0.1-0.1,0.1-0.2,0.1-0.3
		s0-0.2-0.1-0.4l-2.6-6.6L73.4,142.6L73.4,142.6z"/>
	<path class="st16" d="M84.7,149.6c-0.4,0.2-1.1,0.3-2,0.3c-2.3,0-3.8-1.4-3.8-3.7c0-2.1,1.4-3.8,4.1-3.8c0.6,0,1.2,0.1,1.7,0.3
		l-0.4,1.7c-0.3-0.1-0.7-0.2-1.3-0.2c-1.2,0-1.9,0.8-1.9,2c0,1.3,0.9,2,2,2c0.5,0,0.9-0.1,1.3-0.2L84.7,149.6z"/>
	<path class="st16" d="M92.8,146.1c0,2.6-1.9,3.8-3.8,3.8c-2.1,0-3.7-1.4-3.7-3.7s1.5-3.8,3.8-3.8C91.4,142.4,92.8,143.9,92.8,146.1
		z M87.6,146.2c0,1.2,0.5,2.2,1.5,2.2c0.9,0,1.4-0.9,1.4-2.2c0-1.1-0.4-2.2-1.4-2.2C88,144,87.6,145.1,87.6,146.2z"/>
	<path class="st16" d="M94.2,139.3h2.2v10.5h-2.2V139.3z"/>
	<path class="st16" d="M99.9,142.6l1.1,3.5c0.1,0.4,0.3,1,0.4,1.3l0,0c0.1-0.4,0.2-0.9,0.3-1.3l0.9-3.5h2.4l-1.7,4.7
		c-1,2.9-1.7,4-2.5,4.7s-1.6,0.9-2.2,1l-0.5-1.9c0.3,0,0.6-0.2,1-0.4c0.3-0.2,0.7-0.5,0.9-0.9c0.1-0.1,0.1-0.2,0.1-0.3
		s0-0.2-0.1-0.4l-2.6-6.6L99.9,142.6L99.9,142.6z"/>
	<path class="st16" d="M105.7,147.8c0.4,0.3,1.3,0.5,1.9,0.5c0.7,0,1-0.2,1-0.6s-0.2-0.5-1.1-0.8c-1.5-0.5-2.1-1.3-2-2.2
		c0-1.3,1.1-2.4,2.9-2.4c0.8,0,1.6,0.2,2,0.4l-0.4,1.5c-0.3-0.2-0.9-0.4-1.6-0.4c-0.5,0-0.9,0.2-0.9,0.6c0,0.3,0.3,0.5,1.2,0.8
		c1.4,0.5,1.9,1.2,2,2.2c0,1.3-1.1,2.3-3.1,2.3c-0.9,0-1.8-0.2-2.3-0.5L105.7,147.8z"/>
	<path class="st16" d="M114.4,140.6c0,0.6-0.5,1.1-1.2,1.1s-1.2-0.5-1.2-1.1s0.5-1.1,1.2-1.1C114,139.4,114.4,139.9,114.4,140.6z
		 M112.1,149.8v-7.2h2.2v7.2H112.1z"/>
	<path class="st16" d="M116.1,147.8c0.4,0.3,1.3,0.5,1.9,0.5c0.7,0,1-0.2,1-0.6s-0.2-0.5-1.1-0.8c-1.5-0.5-2.1-1.3-2-2.2
		c0-1.3,1.1-2.4,2.9-2.4c0.8,0,1.6,0.2,2,0.4l-0.4,1.5c-0.3-0.2-0.9-0.4-1.6-0.4c-0.5,0-0.9,0.2-0.9,0.6c0,0.3,0.3,0.5,1.2,0.8
		c1.4,0.5,1.9,1.2,2,2.2c0,1.3-1.1,2.3-3.1,2.3c-0.9,0-1.8-0.2-2.3-0.5L116.1,147.8z"/>
</g>
<g>
	<path class="st16" d="M183.2,149.9c0.7-0.1,1.6-0.2,2.9-0.2c1.3,0,2.3,0.3,2.9,0.8c0.6,0.5,1,1.3,1,2.2s-0.3,1.7-0.9,2.2
		c-0.7,0.7-1.8,1-3.1,1c-0.3,0-0.5,0-0.7,0v3.4h-2.1L183.2,149.9L183.2,149.9z M185.3,154.2c0.2,0,0.4,0.1,0.7,0.1
		c1.1,0,1.8-0.6,1.8-1.5s-0.6-1.4-1.7-1.4c-0.4,0-0.7,0-0.9,0.1L185.3,154.2L185.3,154.2z"/>
	<path class="st16" d="M193,152.4l1,3.4c0.1,0.4,0.3,0.9,0.3,1.3l0,0c0.1-0.4,0.2-0.9,0.3-1.3l0.8-3.4h2.3l-1.6,4.5
		c-1,2.7-1.6,3.8-2.4,4.5c-0.7,0.6-1.5,0.9-2.1,0.9l-0.4-1.8c0.3,0,0.6-0.2,0.9-0.4c0.3-0.2,0.7-0.5,0.9-0.9
		c0.1-0.1,0.1-0.2,0.1-0.3s0-0.2-0.1-0.4l-2.5-6.3h2.5V152.4z"/>
	<path class="st16" d="M198.7,154.7c0-1,0-1.7-0.1-2.3h1.8l0.1,1.3h0.1c0.4-1,1.2-1.4,1.8-1.4c0.2,0,0.3,0,0.4,0v2
		c-0.2,0-0.3-0.1-0.6-0.1c-0.8,0-1.3,0.4-1.5,1.1c0,0.1,0,0.3,0,0.5v3.5h-2.1v-4.6H198.7z"/>
	<path class="st16" d="M210.4,157.1c0,0.9,0,1.6,0.1,2.2h-1.8l-0.1-1l0,0c-0.3,0.4-0.9,1.1-2.1,1.1c-1.4,0-2.4-0.9-2.4-3v-4h2.1v3.7
		c0,1,0.3,1.6,1.1,1.6c0.6,0,0.9-0.4,1.1-0.7c0.1-0.1,0.1-0.3,0.1-0.5v-4.1h2.1v4.7H210.4z"/>
	<path class="st16" d="M213.7,152.4l0.9,3.2c0.2,0.6,0.3,1.1,0.4,1.7l0,0c0.1-0.6,0.2-1.1,0.4-1.7l0.9-3.2h2.2l-2.5,6.8h-2.1
		l-2.5-6.8H213.7z"/>
	<path class="st16" d="M223.3,159.3l-0.1-0.7l0,0c-0.4,0.5-1.1,0.8-2,0.8c-1.4,0-2.2-1-2.2-2.1c0-1.8,1.6-2.6,4-2.6v-0.1
		c0-0.4-0.2-0.9-1.2-0.9c-0.7,0-1.4,0.2-1.9,0.5l-0.4-1.4c0.5-0.3,1.4-0.6,2.7-0.6c2.3,0,3,1.3,3,3v2.4c0,0.7,0,1.3,0.1,1.7
		L223.3,159.3L223.3,159.3z M223.1,156c-1.1,0-2,0.3-2,1.1c0,0.5,0.4,0.8,0.8,0.8c0.5,0,1-0.4,1.1-0.8c0-0.1,0-0.2,0-0.4L223.1,156
		L223.1,156z"/>
	<path class="st16" d="M229.1,150.5v2h1.5v1.6h-1.5v2.5c0,0.8,0.2,1.2,0.8,1.2c0.3,0,0.5,0,0.6-0.1v1.6c-0.3,0.1-0.8,0.2-1.4,0.2
		c-0.7,0-1.3-0.2-1.6-0.6c-0.4-0.4-0.6-1.1-0.6-2V154H226v-1.6h0.9v-1.5L229.1,150.5z"/>
	<path class="st16" d="M233.4,156.5c0.1,0.9,0.9,1.3,1.9,1.3c0.7,0,1.3-0.1,1.9-0.3l0.3,1.4c-0.7,0.3-1.6,0.4-2.5,0.4
		c-2.3,0-3.7-1.3-3.7-3.5c0-1.7,1.1-3.7,3.5-3.7c2.2,0,3.1,1.7,3.1,3.4c0,0.4,0,0.7-0.1,0.8h-4.4V156.5z M235.9,155.1
		c0-0.5-0.2-1.4-1.2-1.4c-0.9,0-1.3,0.8-1.3,1.4H235.9z"/>
	<path class="st16" d="M242.1,149.9c0.7-0.1,1.6-0.2,2.9-0.2c1.3,0,2.3,0.3,2.9,0.8c0.6,0.5,1,1.3,1,2.2s-0.3,1.7-0.9,2.2
		c-0.7,0.7-1.8,1-3.1,1c-0.3,0-0.5,0-0.7,0v3.4h-2.1L242.1,149.9L242.1,149.9z M244.2,154.2c0.2,0,0.4,0.1,0.7,0.1
		c1.1,0,1.8-0.6,1.8-1.5s-0.6-1.4-1.7-1.4c-0.4,0-0.7,0-0.9,0.1L244.2,154.2L244.2,154.2z"/>
	<path class="st16" d="M250,154.7c0-1,0-1.7-0.1-2.3h1.8l0.1,1.3h0.1c0.4-1,1.2-1.4,1.8-1.4c0.2,0,0.3,0,0.4,0v2
		c-0.2,0-0.3-0.1-0.6-0.1c-0.8,0-1.3,0.4-1.5,1.1c0,0.1,0,0.3,0,0.5v3.5h-2V154.7z"/>
	<path class="st16" d="M262,155.8c0,2.5-1.8,3.7-3.6,3.7c-2,0-3.5-1.3-3.5-3.5s1.5-3.6,3.7-3.6C260.6,152.3,262,153.7,262,155.8z
		 M257,155.8c0,1.2,0.5,2.1,1.4,2.1c0.8,0,1.4-0.8,1.4-2.1c0-1-0.4-2.1-1.4-2.1C257.4,153.8,257,154.8,257,155.8z"/>
	<path class="st16" d="M268.5,159.1c-0.4,0.2-1.1,0.3-1.9,0.3c-2.2,0-3.6-1.3-3.6-3.5c0-2,1.4-3.6,3.9-3.6c0.6,0,1.2,0.1,1.6,0.3
		l-0.3,1.6c-0.3-0.1-0.6-0.2-1.2-0.2c-1.1,0-1.8,0.8-1.8,1.9c0,1.3,0.8,1.9,1.9,1.9c0.5,0,0.9-0.1,1.2-0.2L268.5,159.1z"/>
	<path class="st16" d="M271.2,156.5c0.1,0.9,0.9,1.3,1.9,1.3c0.7,0,1.3-0.1,1.9-0.3l0.3,1.4c-0.7,0.3-1.6,0.4-2.5,0.4
		c-2.3,0-3.7-1.3-3.7-3.5c0-1.7,1.1-3.7,3.5-3.7c2.2,0,3.1,1.7,3.1,3.4c0,0.4,0,0.7-0.1,0.8h-4.4V156.5z M273.7,155.1
		c0-0.5-0.2-1.4-1.2-1.4c-0.9,0-1.3,0.8-1.3,1.4H273.7z"/>
	<path class="st16" d="M276.9,157.4c0.4,0.2,1.2,0.5,1.8,0.5c0.6,0,0.9-0.2,0.9-0.6s-0.2-0.5-1-0.8c-1.4-0.5-2-1.2-1.9-2.1
		c0-1.3,1.1-2.2,2.8-2.2c0.8,0,1.5,0.2,1.9,0.4l-0.4,1.5c-0.3-0.2-0.9-0.4-1.5-0.4c-0.5,0-0.8,0.2-0.8,0.6c0,0.3,0.3,0.5,1.1,0.8
		c1.3,0.4,1.8,1.1,1.9,2.1c0,1.3-1,2.2-3,2.2c-0.9,0-1.7-0.2-2.2-0.5L276.9,157.4z"/>
	<path class="st16" d="M283,157.4c0.4,0.2,1.2,0.5,1.8,0.5c0.6,0,0.9-0.2,0.9-0.6s-0.2-0.5-1-0.8c-1.4-0.5-2-1.2-1.9-2.1
		c0-1.3,1.1-2.2,2.8-2.2c0.8,0,1.5,0.2,1.9,0.4l-0.4,1.5c-0.3-0.2-0.9-0.4-1.5-0.4c-0.5,0-0.8,0.2-0.8,0.6c0,0.3,0.3,0.5,1.1,0.8
		c1.3,0.4,1.8,1.1,1.9,2.1c0,1.3-1,2.2-3,2.2c-0.9,0-1.7-0.2-2.2-0.5L283,157.4z"/>
	<path class="st16" d="M291.3,150.5c0,0.6-0.4,1.1-1.1,1.1s-1.1-0.5-1.1-1.1s0.4-1.1,1.1-1.1S291.2,149.9,291.3,150.5z M289.1,159.3
		v-6.8h2.1v6.8H289.1z"/>
	<path class="st16" d="M292.9,154.6c0-0.9,0-1.6-0.1-2.2h1.8l0.1,0.9l0,0c0.3-0.4,1-1.1,2.1-1.1c1.4,0,2.5,0.9,2.5,2.9v4.1h-2.1
		v-3.8c0-0.9-0.3-1.5-1.1-1.5c-0.6,0-0.9,0.4-1.1,0.8c-0.1,0.1-0.1,0.3-0.1,0.5v4h-2.1v-4.6H292.9z"/>
	<path class="st16" d="M307.6,152.4c0,0.4-0.1,1-0.1,2v3.8c0,1.3-0.3,2.4-1,3.1c-0.8,0.6-1.8,0.8-2.8,0.8c-0.9,0-1.8-0.2-2.5-0.5
		l0.4-1.6c0.4,0.3,1.2,0.5,2,0.5c1,0,1.8-0.5,1.8-1.8v-0.4l0,0c-0.4,0.6-1.1,0.9-1.8,0.9c-1.7,0-2.9-1.4-2.9-3.3
		c0-2.2,1.4-3.6,3.1-3.6c0.9,0,1.5,0.4,1.9,1l0,0l0.1-0.8L307.6,152.4L307.6,152.4z M305.5,155.2c0-0.1,0-0.3,0-0.4
		c-0.2-0.6-0.6-0.9-1.1-0.9c-0.8,0-1.4,0.7-1.4,1.9c0,1,0.5,1.8,1.4,1.8c0.5,0,1-0.4,1.1-0.9c0.1-0.2,0.1-0.4,0.1-0.6v-0.9H305.5z"
		/>
</g>
<g>
	<path class="st16" d="M67.7,287.1V286l1-0.9c1.7-1.5,2.5-2.4,2.6-3.3c0-0.6-0.4-1.1-1.3-1.1c-0.7,0-1.3,0.3-1.7,0.6l-0.5-1.3
		c0.6-0.4,1.5-0.8,2.6-0.8c1.8,0,2.7,1,2.7,2.4c0,1.3-0.9,2.4-2.1,3.4l-0.7,0.6l0,0h2.9v1.5L67.7,287.1L67.7,287.1z"/>
</g>
<g>
	<path class="st20" d="M78.8,285.1l-0.6,2.1h-1.9l2.5-8.1h2.4l2.5,8.1h-2l-0.6-2.1H78.8z M80.8,283.7l-0.5-1.7
		c-0.1-0.5-0.3-1.1-0.4-1.6l0,0c-0.1,0.5-0.2,1.1-0.4,1.6l-0.5,1.7H80.8z"/>
	<path class="st20" d="M84.8,279.2c0.7-0.1,1.5-0.2,2.5-0.2c1.5,0,2.5,0.3,3.3,0.9s1.4,1.6,1.4,3c0,1.5-0.6,2.6-1.3,3.3
		c-0.9,0.7-2.1,1-3.7,1c-0.9,0-1.6-0.1-2.1-0.1v-7.9H84.8z M86.6,285.8c0.2,0,0.4,0,0.6,0c1.7,0,2.7-0.9,2.7-2.8
		c0-1.7-1-2.6-2.5-2.6c-0.4,0-0.7,0-0.8,0.1C86.6,280.5,86.6,285.8,86.6,285.8z"/>
	<path class="st20" d="M93.1,279.2c0.6-0.1,1.4-0.2,2.5-0.2s1.9,0.2,2.5,0.6c0.5,0.4,0.9,1.1,0.9,1.9s-0.3,1.5-0.7,1.9
		c-0.6,0.6-1.5,0.9-2.6,0.9c-0.2,0-0.5,0-0.6,0v2.9h-1.8v-8H93.1z M94.9,282.8c0.2,0,0.3,0,0.6,0c1,0,1.6-0.5,1.6-1.3
		c0-0.7-0.5-1.2-1.4-1.2c-0.4,0-0.6,0-0.8,0.1C94.9,280.4,94.9,282.8,94.9,282.8z"/>
</g>
<g>
	<path class="st16" d="M102.4,266.6v-1.1l1-0.9c1.7-1.5,2.5-2.4,2.6-3.3c0-0.6-0.4-1.1-1.3-1.1c-0.7,0-1.3,0.3-1.7,0.6l-0.5-1.3
		c0.6-0.4,1.5-0.8,2.6-0.8c1.8,0,2.7,1,2.7,2.4c0,1.3-0.9,2.4-2.1,3.4L105,265l0,0h2.9v1.5h-5.5V266.6z"/>
</g>
<g>
	<path class="st21" d="M113.5,264.5l-0.6,2.1H111l2.5-8.1h2.4l2.5,8.1h-2l-0.6-2.1H113.5z M115.5,263.1l-0.5-1.7
		c-0.1-0.5-0.3-1.1-0.4-1.6l0,0c-0.1,0.5-0.2,1.1-0.4,1.6l-0.5,1.7H115.5z"/>
	<path class="st21" d="M120,260h-2.2v-1.5h6.2v1.5h-2.2v6.5H120V260z"/>
	<path class="st21" d="M125,258.6c0.6-0.1,1.4-0.2,2.5-0.2c1.1,0,1.9,0.2,2.5,0.6c0.5,0.4,0.9,1.1,0.9,1.9s-0.3,1.5-0.7,1.9
		c-0.6,0.6-1.5,0.9-2.6,0.9c-0.2,0-0.5,0-0.6,0v2.9h-2V258.6z M126.8,262.3c0.2,0,0.3,0,0.6,0c1,0,1.6-0.5,1.6-1.3
		c0-0.7-0.5-1.2-1.4-1.2c-0.4,0-0.6,0-0.8,0.1C126.8,259.9,126.8,262.3,126.8,262.3z"/>
</g>
<g>
	<rect x="20.8" y="229.3" class="st16" width="313.1" height="2"/>
</g>
<path class="st16" d="M100.6,231.2l-0.5-1.9c12.5-3,19-13.6,17.3-28.3l2-0.2C121.2,216.5,114.2,227.9,100.6,231.2z"/>
<g>
	<path class="st16" d="M301.8,279.4v-1.1l1-0.9c1.7-1.5,2.5-2.4,2.6-3.3c0-0.6-0.4-1.1-1.3-1.1c-0.7,0-1.3,0.3-1.7,0.6l-0.5-1.3
		c0.6-0.4,1.5-0.8,2.6-0.8c1.8,0,2.7,1,2.7,2.4c0,1.3-0.9,2.4-2.1,3.4l-0.7,0.6l0,0h2.9v1.5L301.8,279.4L301.8,279.4z"/>
	<path class="st16" d="M317.1,279.2c-0.3,0.2-1.1,0.3-2.1,0.3c-2.8,0-4.2-1.7-4.2-4c0-2.8,2-4.3,4.4-4.3c0.9,0,1.7,0.2,2,0.4
		l-0.4,1.5c-0.4-0.2-0.9-0.3-1.5-0.3c-1.5,0-2.6,0.9-2.6,2.7c0,1.6,1,2.6,2.6,2.6c0.6,0,1.2-0.1,1.5-0.3L317.1,279.2z"/>
	<path class="st16" d="M325.4,275.3c0,2.7-1.6,4.3-4,4.3s-3.8-1.8-3.8-4.1c0-2.4,1.5-4.2,3.9-4.2C324,271.2,325.4,273.1,325.4,275.3
		z M319.5,275.4c0,1.6,0.7,2.7,2,2.7c1.2,0,1.9-1.2,1.9-2.7s-0.7-2.7-2-2.7C320.2,272.6,319.5,273.8,319.5,275.4z"/>
	<path class="st16" d="M325.9,280.5l0.7-0.7c0.9-0.8,1.4-1.2,1.4-1.7c0-0.3-0.3-0.6-0.7-0.6c-0.4,0-0.8,0.2-1,0.3L326,277
		c0.4-0.3,1-0.5,1.7-0.5c1.2,0,1.8,0.6,1.8,1.5s-0.7,1.4-1.4,2l-0.3,0.2l0,0h1.8v1h-3.7V280.5z"/>
</g>
<g>
	<path class="st16" d="M297.6,249.4c-6.6-9.7-26.4-18.6-34.2-18.2l-0.1-2c8.4-0.4,28.9,8.7,35.9,19L297.6,249.4z"/>
</g>
<g>
	<path class="st16" d="M423.8,166.2h-2c0-4.1,2.2-8.4,6.3-12.2c7-6.5,18-10.3,27.4-9.6l-0.2,2c-8.9-0.7-19.3,2.9-25.9,9.1
		C425.9,158.8,423.8,162.6,423.8,166.2z"/>
</g>
<g>
	<g>
		<defs>
			<polygon id="SVGID_00000033359782510292329320000007431799445651071916_" points="271.4,229.5 282.2,229.1 300.7,198.2 
				311.4,199.8 299.1,231.4 			"/>
		</defs>
		<clipPath id="SVGID_00000069390719690468108970000003955535901768396427_">
			<use xlink:href="#SVGID_00000033359782510292329320000007431799445651071916_"  style="overflow:visible;"/>
		</clipPath>
		<path style="clip-path:url(#SVGID_00000069390719690468108970000003955535901768396427_);fill:#FFFFFF;" d="M282.2,231
			c-7.9,0-15.4-5.2-20.6-14.5l1.7-1c5.9,10.6,14.7,15.4,23.6,12.8c11.9-3.4,17.6-17,17.1-28.7l2-0.1c0.6,12.5-5.6,27.1-18.5,30.7
			C285.7,230.7,283.9,231,282.2,231z"/>
	</g>
</g>
<path class="st16" d="M415.3,262c-16.3,0-29.5-13.2-29.5-29.5S399,203,415.3,203s29.5,13.2,29.5,29.5S431.5,262,415.3,262z
	 M415.3,205c-15.2,0-27.5,12.3-27.5,27.5s12.3,27.5,27.5,27.5s27.5-12.3,27.5-27.5S430.4,205,415.3,205z"/>
<g>
	<path class="st16" d="M369.7,243.5c-3.2,0-6.7-0.8-10.6-2.4l0.8-1.8c11.4,4.9,19.6,1.9,24.6-8.7l1.8,0.8
		C382.6,239.4,376.9,243.5,369.7,243.5z"/>
</g>
<g>
	<path class="st16" d="M342.1,223.6v-1.1l1-0.9c1.7-1.5,2.5-2.4,2.6-3.3c0-0.6-0.4-1.1-1.3-1.1c-0.7,0-1.3,0.3-1.7,0.6l-0.5-1.3
		c0.6-0.4,1.5-0.8,2.6-0.8c1.8,0,2.7,1,2.7,2.4c0,1.3-0.9,2.4-2.1,3.4l-0.7,0.6l0,0h2.9v1.5L342.1,223.6L342.1,223.6z"/>
	<path class="st16" d="M353.4,221.6l-0.6,2.1h-1.9l2.5-8.1h2.4l2.5,8.1h-2l-0.6-2.1H353.4z M355.4,220.2l-0.5-1.7
		c-0.1-0.5-0.3-1.1-0.4-1.6l0,0c-0.1,0.5-0.2,1.1-0.4,1.6l-0.5,1.7H355.4z"/>
	<path class="st16" d="M363.5,223.5c-0.3,0.1-0.9,0.3-1.6,0.3c-1.9,0-3.1-1.2-3.1-3c0-1.7,1.2-3.1,3.4-3.1c0.5,0,1,0.1,1.4,0.2
		l-0.3,1.4c-0.2-0.1-0.5-0.2-1-0.2c-1,0-1.6,0.7-1.6,1.6c0,1.1,0.7,1.6,1.6,1.6c0.4,0,0.8-0.1,1-0.2L363.5,223.5z"/>
	<path class="st16" d="M365.8,221.3c0.1,0.8,0.8,1.1,1.7,1.1c0.6,0,1.1-0.1,1.6-0.2l0.2,1.2c-0.6,0.2-1.3,0.4-2.1,0.4
		c-2,0-3.1-1.2-3.1-3c0-1.5,0.9-3.1,3-3.1c1.9,0,2.6,1.5,2.6,2.9c0,0.3,0,0.6-0.1,0.7L365.8,221.3L365.8,221.3z M368,220
		c0-0.4-0.2-1.2-1-1.2s-1.1,0.7-1.1,1.2H368z"/>
	<path class="st16" d="M372.8,216.1v1.7h1.3v1.3h-1.3v2.1c0,0.7,0.2,1,0.7,1c0.2,0,0.4,0,0.5,0v1.4c-0.2,0.1-0.7,0.2-1.2,0.2
		c-0.6,0-1.1-0.2-1.4-0.5s-0.5-0.9-0.5-1.7v-2.4h-0.8v-1.3h0.8v-1.3L372.8,216.1z"/>
	<path class="st16" d="M376.6,217.8l0.9,2.9c0.1,0.3,0.2,0.8,0.3,1.1l0,0c0.1-0.3,0.2-0.8,0.3-1.1l0.7-2.9h2l-1.4,3.9
		c-0.8,2.3-1.4,3.3-2.1,3.9c-0.6,0.6-1.3,0.7-1.8,0.8l-0.4-1.5c0.2,0,0.5-0.1,0.8-0.3c0.3-0.1,0.6-0.4,0.8-0.7
		c0.1-0.1,0.1-0.2,0.1-0.3s0-0.2-0.1-0.3l-2.1-5.4L376.6,217.8L376.6,217.8z"/>
	<path class="st16" d="M381.5,215.1h1.8v8.5h-1.8V215.1z"/>
	<path class="st16" d="M358.7,235.4c-0.3,0.2-1.1,0.3-2.1,0.3c-2.8,0-4.2-1.7-4.2-4c0-2.8,2-4.3,4.4-4.3c0.9,0,1.7,0.2,2,0.4
		l-0.4,1.5c-0.4-0.2-0.9-0.3-1.5-0.3c-1.5,0-2.6,0.9-2.6,2.7c0,1.6,1,2.6,2.6,2.6c0.6,0,1.2-0.1,1.5-0.3L358.7,235.4z"/>
	<path class="st16" d="M365.4,232.6c0,2.1-1.5,3.1-3.1,3.1c-1.7,0-3-1.1-3-3s1.2-3.1,3.1-3.1C364.2,229.6,365.4,230.9,365.4,232.6z
		 M361.2,232.7c0,1,0.4,1.8,1.2,1.8c0.7,0,1.2-0.7,1.2-1.8c0-0.9-0.3-1.8-1.2-1.8S361.2,231.8,361.2,232.7z"/>
	<path class="st16" d="M368.5,233.6l-0.6,2.1H366l2.5-8.1h2.4l2.5,8.1h-2l-0.6-2.1H368.5z M370.5,232.2l-0.5-1.7
		c-0.1-0.5-0.3-1.1-0.4-1.6l0,0c-0.1,0.5-0.2,1.1-0.4,1.6l-0.5,1.7H370.5z"/>
</g>
<g>
	<path class="st16" d="M409.3,205.7l-0.4-2c7.7-1.5,10.9-5.5,10.5-12.9l2-0.1C421.9,199.1,418,203.9,409.3,205.7z"/>
	<polygon class="st16" points="420.5,193.9 424.3,193.9 422.5,190.6 420.6,187.3 418.7,190.6 416.7,193.8 	"/>
</g>
<g>
	<g>
		<path class="st16" d="M353.4,259.4v-1.1l1-0.9c1.7-1.5,2.5-2.4,2.6-3.3c0-0.6-0.4-1.1-1.3-1.1c-0.7,0-1.3,0.3-1.7,0.6l-0.5-1.3
			c0.6-0.4,1.5-0.8,2.6-0.8c1.8,0,2.7,1,2.7,2.4c0,1.3-0.9,2.4-2.1,3.4l-0.7,0.6l0,0h2.9v1.5H353.4z"/>
	</g>
	<g>
		<path class="st21" d="M364.5,257.4l-0.6,2.1H362l2.5-8.1h2.4l2.5,8.1h-2l-0.6-2.1H364.5z M366.6,256l-0.5-1.7
			c-0.1-0.5-0.3-1.1-0.4-1.6l0,0c-0.1,0.5-0.2,1.1-0.4,1.6l-0.5,1.7H366.6z"/>
		<path class="st21" d="M371.1,252.9h-2.2v-1.5h6.2v1.5h-2.2v6.5h-1.8V252.9z"/>
		<path class="st21" d="M376.1,251.5c0.6-0.1,1.4-0.2,2.5-0.2s1.9,0.2,2.5,0.6c0.5,0.4,0.9,1.1,0.9,1.9c0,0.8-0.3,1.5-0.7,1.9
			c-0.6,0.6-1.5,0.9-2.6,0.9c-0.2,0-0.5,0-0.6,0v2.9h-1.8v-8H376.1z M377.9,255.1c0.2,0,0.3,0,0.6,0c1,0,1.6-0.5,1.6-1.3
			c0-0.7-0.5-1.2-1.4-1.2c-0.4,0-0.6,0-0.8,0.1L377.9,255.1L377.9,255.1z"/>
	</g>
</g>
<g>
	<g>
		<path class="st16" d="M398.8,288.4v-1.1l1-0.9c1.7-1.5,2.5-2.4,2.6-3.3c0-0.6-0.4-1.1-1.3-1.1c-0.7,0-1.3,0.3-1.7,0.6l-0.5-1.3
			c0.6-0.4,1.5-0.8,2.6-0.8c1.8,0,2.7,1,2.7,2.4c0,1.3-0.9,2.4-2.1,3.4l-0.7,0.6l0,0h2.9v1.5L398.8,288.4L398.8,288.4z"/>
	</g>
	<g>
		<path class="st20" d="M409.9,286.4l-0.6,2.1h-1.9l2.5-8.1h2.4l2.5,8.1h-2l-0.6-2.1H409.9z M412,285l-0.5-1.7
			c-0.1-0.5-0.3-1.1-0.4-1.6l0,0c-0.1,0.5-0.2,1.1-0.4,1.6l-0.5,1.7H412z"/>
		<path class="st20" d="M415.9,280.5c0.7-0.1,1.5-0.2,2.5-0.2c1.5,0,2.5,0.3,3.3,0.9s1.4,1.6,1.4,3c0,1.5-0.6,2.6-1.3,3.3
			c-0.9,0.7-2.1,1-3.7,1c-0.9,0-1.6-0.1-2.1-0.1L415.9,280.5L415.9,280.5z M417.7,287.1c0.2,0,0.4,0,0.6,0c1.7,0,2.7-0.9,2.7-2.8
			c0-1.7-1-2.6-2.5-2.6c-0.4,0-0.7,0-0.8,0.1L417.7,287.1L417.7,287.1z"/>
		<path class="st20" d="M424.2,280.5c0.6-0.1,1.4-0.2,2.5-0.2s1.9,0.2,2.5,0.6c0.5,0.4,0.9,1.1,0.9,1.9s-0.3,1.5-0.7,1.9
			c-0.6,0.6-1.5,0.9-2.6,0.9c-0.2,0-0.5,0-0.6,0v2.9h-1.8v-8H424.2z M426.1,284.1c0.2,0,0.3,0,0.6,0c1,0,1.6-0.5,1.6-1.3
			c0-0.7-0.5-1.2-1.4-1.2c-0.4,0-0.6,0-0.8,0.1L426.1,284.1L426.1,284.1z"/>
	</g>
</g>
<g>
	<path class="st16" d="M450.7,301.4v-1.9h-3.5v-1.2l3-4.7h2.2v4.6h0.9v1.4h-0.9v1.9L450.7,301.4L450.7,301.4z M450.7,298.2v-1.7
		c0-0.5,0-0.9,0.1-1.5l0,0c-0.3,0.5-0.5,1-0.7,1.5l-1,1.7l0,0H450.7z"/>
	<path class="st16" d="M462.8,301.2c-0.3,0.2-1.1,0.3-2.1,0.3c-2.8,0-4.2-1.7-4.2-4c0-2.8,2-4.3,4.4-4.3c0.9,0,1.7,0.2,2,0.4
		l-0.4,1.5c-0.4-0.2-0.9-0.3-1.5-0.3c-1.5,0-2.6,0.9-2.6,2.7c0,1.6,1,2.6,2.6,2.6c0.6,0,1.2-0.1,1.5-0.3L462.8,301.2z"/>
	<path class="st16" d="M471,297.3c0,2.7-1.6,4.3-4,4.3s-3.8-1.8-3.8-4.1c0-2.4,1.5-4.2,3.9-4.2C469.7,293.2,471,295,471,297.3z
		 M465.2,297.4c0,1.6,0.7,2.7,2,2.7c1.2,0,1.9-1.2,1.9-2.7s-0.7-2.7-2-2.7C465.9,294.6,465.2,295.8,465.2,297.4z"/>
	<path class="st16" d="M471.6,302.5l0.7-0.7c0.9-0.8,1.4-1.2,1.4-1.7c0-0.3-0.3-0.6-0.7-0.6c-0.4,0-0.8,0.2-1,0.3l-0.4-0.9
		c0.4-0.3,1-0.5,1.7-0.5c1.2,0,1.8,0.6,1.8,1.5s-0.7,1.4-1.4,2l-0.3,0.2l0,0h1.8v1h-3.7v-0.6H471.6z"/>
</g>
<g>
	<path class="st16" d="M371.9,131.1c-0.4,0.2-1.3,0.4-2.5,0.4c-3.4,0-5.2-2.1-5.2-5c0-3.4,2.4-5.3,5.4-5.3c1.2,0,2,0.2,2.4,0.4
		l-0.5,1.8c-0.5-0.2-1.1-0.4-1.9-0.4c-1.8,0-3.2,1.1-3.2,3.3c0,2,1.2,3.2,3.2,3.2c0.7,0,1.4-0.1,1.9-0.3L371.9,131.1z"/>
	<path class="st16" d="M375.6,122.2c0,0.6-0.5,1.1-1.2,1.1s-1.2-0.5-1.2-1.1s0.5-1.1,1.2-1.1S375.6,121.6,375.6,122.2z M373.3,131.4
		v-7.2h2.2v7.2H373.3z"/>
	<path class="st16" d="M379.8,122.2v2.1h1.6v1.6h-1.6v2.6c0,0.9,0.2,1.3,0.9,1.3c0.3,0,0.5,0,0.7-0.1v1.7c-0.3,0.1-0.8,0.2-1.5,0.2
		s-1.3-0.3-1.7-0.6c-0.4-0.4-0.6-1.1-0.6-2.1V126h-1v-1.6h1v-1.6L379.8,122.2z"/>
	<path class="st16" d="M382.7,126.6c0-1.1,0-1.8-0.1-2.4h1.9l0.1,1.3h0.1c0.4-1,1.3-1.5,1.9-1.5c0.2,0,0.3,0,0.5,0v2.1
		c-0.2,0-0.4-0.1-0.6-0.1c-0.8,0-1.4,0.4-1.5,1.1c0,0.1,0,0.3,0,0.5v3.7h-2.2L382.7,126.6L382.7,126.6z"/>
	<path class="st16" d="M390.6,122.2c0,0.6-0.5,1.1-1.2,1.1s-1.2-0.5-1.2-1.1s0.5-1.1,1.2-1.1S390.6,121.6,390.6,122.2z M388.3,131.4
		v-7.2h2.2v7.2H388.3z"/>
	<path class="st16" d="M397.7,131.2c-0.4,0.2-1.1,0.3-2,0.3c-2.3,0-3.8-1.4-3.8-3.7c0-2.1,1.4-3.8,4.1-3.8c0.6,0,1.2,0.1,1.7,0.3
		l-0.4,1.7c-0.3-0.1-0.7-0.2-1.3-0.2c-1.2,0-1.9,0.8-1.9,2c0,1.3,0.9,2,2,2c0.5,0,0.9-0.1,1.3-0.2L397.7,131.2z"/>
	<path class="st16" d="M404.3,128.9l-0.7,2.5h-2.3l3-9.9h2.9l3.1,9.9h-2.4l-0.8-2.5H404.3z M406.9,127.2l-0.6-2.1
		c-0.2-0.6-0.4-1.3-0.5-1.9l0,0c-0.1,0.6-0.3,1.3-0.5,1.9l-0.6,2.1H406.9z"/>
	<path class="st16" d="M416.8,131.2c-0.4,0.2-1.1,0.3-2,0.3c-2.3,0-3.8-1.4-3.8-3.7c0-2.1,1.4-3.8,4.1-3.8c0.6,0,1.2,0.1,1.7,0.3
		l-0.4,1.7c-0.3-0.1-0.7-0.2-1.3-0.2c-1.2,0-1.9,0.8-1.9,2c0,1.3,0.9,2,2,2c0.5,0,0.9-0.1,1.3-0.2L416.8,131.2z"/>
	<path class="st16" d="M420.4,122.2c0,0.6-0.5,1.1-1.2,1.1s-1.2-0.5-1.2-1.1s0.5-1.1,1.2-1.1S420.3,121.6,420.4,122.2z M418,131.4
		v-7.2h2.2v7.2H418z"/>
	<path class="st16" d="M429.1,121v8.3c0,0.8,0,1.7,0.1,2.2h-2l-0.1-1.1l0,0c-0.5,0.8-1.3,1.2-2.3,1.2c-1.7,0-3.1-1.5-3.1-3.7
		c0-2.4,1.5-3.8,3.2-3.8c0.9,0,1.6,0.3,1.9,0.8l0,0V121H429.1z M426.8,127.3c0-0.1,0-0.3,0-0.4c-0.1-0.6-0.6-1.1-1.3-1.1
		c-1,0-1.5,0.9-1.5,2c0,1.2,0.6,2,1.5,2c0.6,0,1.2-0.4,1.3-1.1c0-0.2,0.1-0.3,0.1-0.5v-0.9H426.8z"/>
	<path class="st16" d="M441.2,131.1c-0.4,0.2-1.3,0.4-2.5,0.4c-3.4,0-5.2-2.1-5.2-5c0-3.4,2.4-5.3,5.4-5.3c1.2,0,2,0.2,2.4,0.4
		l-0.5,1.8c-0.5-0.2-1.1-0.4-1.9-0.4c-1.8,0-3.2,1.1-3.2,3.3c0,2,1.2,3.2,3.2,3.2c0.7,0,1.4-0.1,1.9-0.3L441.2,131.1z"/>
	<path class="st16" d="M443.8,124.2l1.1,3.5c0.1,0.4,0.3,1,0.4,1.3l0,0c0.1-0.4,0.2-0.9,0.3-1.3l0.9-3.5h2.4l-1.7,4.7
		c-1,2.9-1.7,4-2.5,4.7s-1.6,0.9-2.2,1l-0.5-1.9c0.3,0,0.6-0.2,1-0.4c0.3-0.2,0.7-0.5,0.9-0.9c0.1-0.1,0.1-0.2,0.1-0.3
		s0-0.2-0.1-0.4l-2.6-6.6L443.8,124.2L443.8,124.2z"/>
	<path class="st16" d="M455,131.2c-0.4,0.2-1.1,0.3-2,0.3c-2.3,0-3.8-1.4-3.8-3.7c0-2.1,1.4-3.8,4.1-3.8c0.6,0,1.2,0.1,1.7,0.3
		l-0.4,1.7c-0.3-0.1-0.7-0.2-1.3-0.2c-1.2,0-1.9,0.8-1.9,2c0,1.3,0.9,2,2,2c0.5,0,0.9-0.1,1.3-0.2L455,131.2z"/>
	<path class="st16" d="M456.2,121h2.2v10.5h-2.2V121z"/>
	<path class="st16" d="M462,128.5c0.1,0.9,1,1.4,2,1.4c0.8,0,1.4-0.1,2-0.3l0.3,1.5c-0.7,0.3-1.6,0.4-2.6,0.4
		c-2.4,0-3.8-1.4-3.8-3.7c0-1.8,1.1-3.8,3.6-3.8c2.3,0,3.2,1.8,3.2,3.6c0,0.4,0,0.7-0.1,0.9L462,128.5L462,128.5z M464.6,127
		c0-0.5-0.2-1.5-1.3-1.5c-0.9,0-1.3,0.9-1.4,1.5H464.6z"/>
</g>
<path class="st16" d="M307.1,185.2h-2c0.1-9.7,3.6-24.1,13.1-33.1c5.7-5.4,12.6-7.9,20.5-7.5l-0.1,2c-7.4-0.4-13.8,2-19,7
	C310.5,162.1,307.2,175.9,307.1,185.2z"/>
<g>
	<g>
		<g>
			<defs>
				<rect id="SVGID_00000003815238016466311420000011135973937150734465_" x="114.7" y="139.9" width="395.9" height="47.4"/>
			</defs>
			<clipPath id="SVGID_00000150083432162054942960000015174371469752152249_">
				<use xlink:href="#SVGID_00000003815238016466311420000011135973937150734465_"  style="overflow:visible;"/>
			</clipPath>
			<polygon style="clip-path:url(#SVGID_00000150083432162054942960000015174371469752152249_);fill:#FFFFFF;" points="507,145.7 
				504.1,147.2 501.3,148.8 501.3,145.7 501.3,142.6 504.1,144.1 			"/>
		</g>
		<g>
			<defs>
				<rect id="SVGID_00000119826535952774512950000008512579170120799127_" x="114.7" y="139.9" width="395.9" height="47.4"/>
			</defs>
			<clipPath id="SVGID_00000042734152933871301380000008534693292829314702_">
				<use xlink:href="#SVGID_00000119826535952774512950000008512579170120799127_"  style="overflow:visible;"/>
			</clipPath>
			<g style="clip-path:url(#SVGID_00000042734152933871301380000008534693292829314702_);">
				<g>
					<defs>
						<rect id="SVGID_00000031930313202764267950000011735517088212011927_" x="114.7" y="139.9" width="395.9" height="47.4"/>
					</defs>
					<clipPath id="SVGID_00000007391765580841533520000018334641751248301481_">
						<use xlink:href="#SVGID_00000031930313202764267950000011735517088212011927_"  style="overflow:visible;"/>
					</clipPath>
					<path style="clip-path:url(#SVGID_00000007391765580841533520000018334641751248301481_);fill:#FFFFFF;" d="M476,144.6
						L476,144.6c-114.6,0-278,0-313.2,0.1c-5.2,0.1-12.5,0.2-19.1,1.2c-2.7,0.4-4.7,0.8-7.5,1.8c-7,2.6-12.6,7.7-15.1,14.9
						c-1.4,4.1-2.5,14.6-1.7,19.8h1.1h1.1c0,0,0.5,0,0.5-0.1c-0.7-4.4-0.1-14.2,1-17.8c2.3-7.3,7.8-12.4,14-14.9
						c1.3-0.5,2.9-0.9,4.2-1.1c9.1-1.6,15.3-1.6,21.5-1.7c39.3-0.2,199.1-0.1,313.2,0l0,0c17.6,0,28.1,0,28.1,0v-2.2
						C504.1,144.6,493.6,144.6,476,144.6"/>
				</g>
			</g>
		</g>
	</g>
</g>
<polygon class="st16" points="455.1,141.8 462,145.5 455.1,149.1 "/>
<polygon class="st16" points="501.2,141.8 508.1,145.5 501.2,149.1 "/>
<polygon class="st16" points="335.6,141.8 342.4,145.4 335.6,149 "/>
<polygon class="st16" points="301.2,202.7 304.9,195.8 308.5,202.7 "/>
<polygon class="st16" points="330.7,226.5 337.6,230.1 330.7,233.8 "/>
<polygon class="st16" points="300.9,245.8 302.3,253.4 295.2,250.3 "/>
<polygon class="st16" points="245.5,226.6 252.4,230.3 245.5,233.9 "/>
<g>
	<path class="st16" d="M81.7,275.2c-0.1-1.2-1.4-30.1,9.1-41.4c2.6-2.9,5.8-4.4,9.5-4.6c4-0.1,7.3,1.1,9.9,3.6
		c6.1,6,5.9,17.2,5.9,17.7h-2c0-0.1,0.2-10.8-5.3-16.2c-2.2-2.2-5-3.2-8.4-3.1c-3.1,0.1-5.8,1.4-8.1,3.9c-9.9,10.8-8.6,39.7-8.6,40
		L81.7,275.2z"/>
	<polygon class="st16" points="118.7,249.7 115,256.6 111.4,249.7 	"/>
</g>
<polygon class="st16" points="114.8,202.3 118.4,195.4 122,202.3 "/>
<polygon class="st16" points="399.5,204.7 407.3,204.6 403,211.1 "/>
<polygon class="st16" points="381.6,230.1 387.5,225 388.4,232.7 "/>
<polygon class="st16" points="386.3,246.9 387.3,239.1 393.1,244.3 "/>
<g>
	<g>
		<path class="st16" d="M415.7,278.2c0-0.1-1-11.5-11.1-17.9c-5.7-3.7-8.9-3.7-13.4-3.6c-1.2,0-2.4,0-3.9-0.1l0.1-2
			c1.4,0.1,2.6,0.1,3.7,0.1c4.6,0,8.2,0,14.5,4c11,7,12,18.9,12.1,19.5H415.7z"/>
	</g>
	<polygon class="st16" points="390.9,259.1 384.1,255.3 391.1,251.9 	"/>
</g>
<polygon class="st16" points="432.3,259.7 424.5,259.8 428.8,253.3 "/>
<polygon class="st16" points="442,214.9 442,222.7 435.5,218.4 "/>
<g>
	<g>
		<path class="st16" d="M452.9,242.8c-0.3-8.3-4.6-15.5-11.7-19.4l1-1.8c7.7,4.2,12.4,12.1,12.7,21.1L452.9,242.8z"/>
	</g>
	<polygon class="st16" points="457.5,241.8 454,248.8 450.2,241.9 	"/>
</g>
<g>
	<path class="st16" d="M406.9,223.6c-0.4,0.2-1.2,0.4-2.2,0.4c-3,0-4.6-1.9-4.6-4.4c0-3,2.1-4.7,4.8-4.7c1,0,1.8,0.2,2.2,0.4
		l-0.4,1.6c-0.4-0.2-1-0.3-1.7-0.3c-1.6,0-2.8,0.9-2.8,2.9c0,1.8,1,2.9,2.8,2.9c0.6,0,1.3-0.1,1.7-0.3L406.9,223.6z"/>
	<path class="st16" d="M410.2,215.7c0,0.5-0.4,1-1.1,1c-0.6,0-1-0.4-1-1s0.4-1,1-1S410.1,215.2,410.2,215.7z M408.1,223.9v-6.4h2
		v6.4H408.1z"/>
	<path class="st16" d="M413.9,215.7v1.8h1.4v1.5h-1.4v2.3c0,0.8,0.2,1.1,0.8,1.1c0.2,0,0.4,0,0.6-0.1v1.5c-0.3,0.1-0.7,0.2-1.3,0.2
		c-0.6,0-1.2-0.2-1.5-0.5c-0.4-0.4-0.5-1-0.5-1.9V219h-0.8v-1.5h0.8v-1.4L413.9,215.7z"/>
	<path class="st16" d="M416.4,219.6c0-0.9,0-1.5-0.1-2.1h1.7l0.1,1.2h0.1c0.3-0.9,1.1-1.3,1.7-1.3c0.2,0,0.3,0,0.4,0v1.9
		c-0.1,0-0.3-0.1-0.5-0.1c-0.7,0-1.2,0.4-1.4,1c0,0.1,0,0.3,0,0.4v3.2h-2L416.4,219.6L416.4,219.6z"/>
	<path class="st16" d="M423.4,215.7c0,0.5-0.4,1-1.1,1c-0.6,0-1-0.4-1-1s0.4-1,1-1C423,214.7,423.4,215.2,423.4,215.7z M421.4,223.9
		v-6.4h2v6.4H421.4z"/>
	<path class="st16" d="M429.7,223.7c-0.4,0.2-1,0.3-1.8,0.3c-2.1,0-3.4-1.2-3.4-3.2c0-1.9,1.3-3.4,3.6-3.4c0.5,0,1.1,0.1,1.5,0.2
		l-0.3,1.5c-0.2-0.1-0.6-0.2-1.1-0.2c-1,0-1.7,0.7-1.7,1.8c0,1.2,0.8,1.8,1.7,1.8c0.5,0,0.8-0.1,1.1-0.2L429.7,223.7z"/>
	<path class="st16" d="M405,233.6l-0.6,2.2h-2.1l2.7-8.8h2.6l2.7,8.8h-2.1l-0.7-2.2H405z M407.2,232.1l-0.5-1.9
		c-0.2-0.5-0.3-1.2-0.4-1.7l0,0c-0.1,0.5-0.3,1.2-0.4,1.7l-0.5,1.9H407.2z"/>
	<path class="st16" d="M416,235.7c-0.4,0.2-1,0.3-1.8,0.3c-2.1,0-3.4-1.2-3.4-3.2c0-1.9,1.3-3.4,3.6-3.4c0.5,0,1.1,0.1,1.5,0.2
		l-0.3,1.5c-0.2-0.1-0.6-0.2-1.1-0.2c-1,0-1.7,0.7-1.7,1.8c0,1.2,0.8,1.8,1.7,1.8c0.5,0,0.8-0.1,1.1-0.2L416,235.7z"/>
	<path class="st16" d="M419.1,227.7c0,0.5-0.4,1-1.1,1c-0.6,0-1-0.4-1-1s0.4-1,1-1S419.1,227.2,419.1,227.7z M417.1,235.9v-6.4h2
		v6.4H417.1z"/>
	<path class="st16" d="M426.8,226.6v7.3c0,0.7,0,1.5,0.1,1.9h-1.8l-0.1-0.9l0,0c-0.4,0.7-1.2,1.1-2,1.1c-1.5,0-2.7-1.3-2.7-3.3
		c0-2.1,1.3-3.4,2.8-3.4c0.8,0,1.4,0.3,1.7,0.7l0,0v-3.4L426.8,226.6L426.8,226.6z M424.8,232.2c0-0.1,0-0.2,0-0.4
		c-0.1-0.5-0.5-1-1.2-1c-0.9,0-1.4,0.8-1.4,1.8c0,1.1,0.5,1.8,1.4,1.8c0.6,0,1-0.4,1.1-0.9c0-0.1,0.1-0.3,0.1-0.5V232.2z"/>
	<path class="st16" d="M407,247.6c-0.4,0.2-1.2,0.4-2.2,0.4c-3,0-4.6-1.9-4.6-4.4c0-3,2.1-4.7,4.8-4.7c1,0,1.8,0.2,2.2,0.4l-0.4,1.6
		c-0.4-0.2-1-0.3-1.7-0.3c-1.6,0-2.8,0.9-2.8,2.9c0,1.8,1,2.9,2.8,2.9c0.6,0,1.3-0.1,1.7-0.3L407,247.6z"/>
	<path class="st16" d="M409.3,241.5l0.9,3.1c0.1,0.4,0.2,0.8,0.3,1.2l0,0c0.1-0.3,0.2-0.8,0.3-1.2l0.8-3.1h2.1l-1.5,4.2
		c-0.9,2.5-1.5,3.5-2.2,4.2c-0.7,0.6-1.4,0.8-1.9,0.9l-0.4-1.7c0.2,0,0.6-0.2,0.9-0.3c0.3-0.2,0.6-0.5,0.8-0.8
		c0.1-0.1,0.1-0.2,0.1-0.3s0-0.2-0.1-0.3l-2.3-5.8L409.3,241.5L409.3,241.5z"/>
	<path class="st16" d="M419.2,247.7c-0.4,0.2-1,0.3-1.8,0.3c-2.1,0-3.4-1.2-3.4-3.2c0-1.9,1.3-3.4,3.6-3.4c0.5,0,1.1,0.1,1.5,0.2
		l-0.3,1.5c-0.2-0.1-0.6-0.2-1.1-0.2c-1,0-1.7,0.7-1.7,1.8c0,1.2,0.8,1.8,1.7,1.8c0.5,0,0.8-0.1,1.1-0.2L419.2,247.7z"/>
	<path class="st16" d="M420.3,238.6h2v9.2h-2V238.6z"/>
	<path class="st16" d="M425.4,245.3c0.1,0.8,0.9,1.2,1.8,1.2c0.7,0,1.2-0.1,1.8-0.3l0.3,1.3c-0.6,0.3-1.4,0.4-2.3,0.4
		c-2.2,0-3.4-1.2-3.4-3.2c0-1.6,1-3.4,3.2-3.4c2.1,0,2.8,1.6,2.8,3.2c0,0.3,0,0.6-0.1,0.8H425.4z M427.7,244c0-0.5-0.2-1.3-1.1-1.3
		c-0.8,0-1.2,0.8-1.2,1.3H427.7z"/>
</g>
<g>
	<path class="st16" d="M522.6,169c-0.2,0-0.4,0-0.7,0c-1.6,0.1-2.3,1-2.5,1.9l0,0c0.4-0.4,0.9-0.6,1.7-0.6c1.3,0,2.4,0.9,2.4,2.5
		c0,1.5-1.2,2.8-2.9,2.8c-2.1,0-3.1-1.5-3.1-3.4c0-1.5,0.5-2.7,1.4-3.5c0.8-0.7,1.8-1.1,3-1.2c0.3,0,0.6,0,0.7,0L522.6,169
		L522.6,169z M521.6,172.9c0-0.7-0.4-1.3-1.2-1.3c-0.5,0-0.9,0.3-1.1,0.7c0,0.1-0.1,0.2-0.1,0.5c0,0.8,0.4,1.6,1.3,1.6
		C521.2,174.3,521.6,173.7,521.6,172.9z"/>
	<path class="st16" d="M534.4,171.4c0,2.7-1.6,4.3-4,4.3s-3.8-1.8-3.8-4.1c0-2.4,1.5-4.2,3.9-4.2C533,167.3,534.4,169.1,534.4,171.4
		z M528.5,171.5c0,1.6,0.7,2.7,2,2.7c1.2,0,1.9-1.2,1.9-2.7s-0.7-2.7-2-2.7C529.2,168.7,528.5,169.9,528.5,171.5z"/>
	<path class="st16" d="M535,176.6l0.7-0.7c0.9-0.8,1.4-1.2,1.4-1.7c0-0.3-0.3-0.6-0.7-0.6s-0.8,0.2-1,0.3L535,173
		c0.4-0.3,1-0.5,1.7-0.5c1.2,0,1.8,0.6,1.8,1.5s-0.7,1.4-1.4,2l-0.3,0.2l0,0h1.8v1H535V176.6z"/>
</g>
<g>
	<path class="st16" d="M554.9,197.1c-0.2,0-0.4,0-0.7,0c-1.6,0.1-2.3,1-2.5,1.9l0,0c0.4-0.4,0.9-0.6,1.7-0.6c1.3,0,2.4,0.9,2.4,2.5
		c0,1.5-1.2,2.8-2.9,2.8c-2.1,0-3.1-1.5-3.1-3.4c0-1.5,0.5-2.7,1.4-3.5c0.8-0.7,1.8-1.1,3-1.2c0.3,0,0.6,0,0.7,0L554.9,197.1
		L554.9,197.1z M554,201c0-0.7-0.4-1.3-1.2-1.3c-0.5,0-0.9,0.3-1.1,0.7c0,0.1-0.1,0.2-0.1,0.5c0,0.8,0.4,1.6,1.3,1.6
		C553.5,202.4,554,201.8,554,201z"/>
	<path class="st16" d="M561.2,195.5v3.1h3v-3.1h1.8v8.1h-1.8v-3.4h-3v3.4h-1.8v-8.1H561.2z"/>
	<path class="st16" d="M567,204.7l0.7-0.7c0.9-0.8,1.4-1.2,1.4-1.7c0-0.3-0.3-0.6-0.7-0.6s-0.8,0.2-1,0.3l-0.4-0.9
		c0.4-0.3,1-0.5,1.7-0.5c1.2,0,1.8,0.6,1.8,1.5s-0.7,1.4-1.4,2l-0.3,0.2l0,0h1.8v1H567V204.7z"/>
	<path class="st16" d="M579.2,199.4c0,2.7-1.6,4.3-4,4.3s-3.8-1.8-3.8-4.1c0-2.4,1.5-4.2,3.9-4.2
		C577.9,195.4,579.2,197.2,579.2,199.4z M573.4,199.6c0,1.6,0.7,2.7,2,2.7c1.2,0,1.9-1.2,1.9-2.7s-0.7-2.7-2-2.7
		C574.1,196.8,573.4,198,573.4,199.6z"/>
</g>
<g>
	<g>
		<path class="st16" d="M561.4,187.8c-4-7.2-11.2-11.7-19.2-11.9l0.1-2c8.8,0.3,16.6,5.1,20.9,13L561.4,187.8z"/>
	</g>
	<polygon class="st16" points="565.1,184.9 565,192.7 558.6,188.2 	"/>
</g>
<g>
	<path class="st16" d="M48.2,356c-0.5,0.2-1.5,0.5-2.7,0.5c-3.4,0-5.4-2.1-5.4-5.3c0-3.5,2.4-5.6,5.7-5.6c1.3,0,2.2,0.3,2.6,0.5
		l-0.4,1.5c-0.5-0.2-1.2-0.4-2.1-0.4c-2.2,0-3.7,1.4-3.7,3.9c0,2.3,1.4,3.8,3.7,3.8c0.8,0,1.6-0.2,2.1-0.4L48.2,356z"/>
	<path class="st16" d="M50.6,348.7l1.4,4.1c0.2,0.5,0.3,1.1,0.4,1.5l0,0c0.1-0.4,0.3-1,0.4-1.5l1.2-4.1h2.1l-1.9,5.2
		c-1.1,2.9-1.8,4.1-2.7,4.9c-0.8,0.7-1.5,0.9-2,1l-0.4-1.6c0.3-0.1,0.7-0.3,1.1-0.5c0.4-0.2,0.8-0.7,1.1-1.2
		c0.1-0.1,0.1-0.3,0.1-0.3c0-0.1,0-0.2-0.1-0.4l-2.8-7.1H50.6z"/>
	<path class="st16" d="M59.5,346.5v2.2h1.8v1.5h-1.8v3.4c0,0.9,0.3,1.4,1,1.4c0.3,0,0.6,0,0.8-0.1v1.5c-0.3,0.1-0.8,0.2-1.4,0.2
		c-0.7,0-1.3-0.2-1.7-0.6s-0.6-1.1-0.6-2.1v-3.6h-1.1v-1.5h1.1v-1.7L59.5,346.5z"/>
	<path class="st16" d="M70,352.4c0,2.8-2,4.1-3.9,4.1c-2.2,0-3.8-1.5-3.8-4s1.7-4.1,4-4.1C68.5,348.5,70,350.1,70,352.4z
		 M64.2,352.5c0,1.5,0.7,2.6,1.9,2.6c1.1,0,1.9-1.1,1.9-2.6c0-1.2-0.5-2.6-1.9-2.6C64.8,349.9,64.2,351.2,64.2,352.5z"/>
	<path class="st16" d="M71.6,351.2c0-1,0-1.8-0.1-2.6h1.7l0.1,1.2l0,0c0.6-0.9,1.5-1.4,2.6-1.4c1.8,0,3.2,1.5,3.2,3.9
		c0,2.8-1.8,4.1-3.5,4.1c-1,0-1.8-0.4-2.2-1l0,0v4h-1.9v-8.2H71.6z M73.5,353.1c0,0.2,0,0.4,0.1,0.5c0.2,0.8,0.9,1.4,1.7,1.4
		c1.2,0,2-1,2-2.5c0-1.4-0.7-2.5-1.9-2.5c-0.8,0-1.5,0.6-1.7,1.4c0,0.2-0.1,0.3-0.1,0.5L73.5,353.1L73.5,353.1z"/>
	<path class="st16" d="M80.8,345.2h2v11.2h-2V345.2z"/>
	<path class="st16" d="M89.2,356.4l-0.1-0.9l0,0c-0.5,0.6-1.3,1-2.3,1c-1.5,0-2.4-1.1-2.4-2.3c0-1.9,1.7-2.9,4.6-2.9v-0.1
		c0-0.5-0.2-1.3-1.6-1.3c-0.8,0-1.5,0.2-2.1,0.6l-0.4-1.3c0.6-0.3,1.6-0.7,2.8-0.7c2.5,0,3.2,1.6,3.2,3.2v2.8c0,0.7,0,1.4,0.1,1.8
		L89.2,356.4L89.2,356.4z M88.9,352.6c-1.4,0-2.7,0.3-2.7,1.4c0,0.8,0.5,1.1,1.1,1.1c0.8,0,1.3-0.5,1.5-1.1c0-0.1,0.1-0.3,0.1-0.4
		V352.6z"/>
	<path class="st16" d="M92.8,354.6c0.4,0.3,1.3,0.6,2,0.6c0.9,0,1.2-0.3,1.2-0.9c0-0.5-0.3-0.8-1.3-1.1c-1.5-0.5-2.1-1.3-2.1-2.2
		c0-1.4,1.1-2.4,2.9-2.4c0.9,0,1.6,0.2,2,0.5l-0.4,1.4c-0.3-0.2-0.9-0.4-1.6-0.4s-1.1,0.3-1.1,0.8s0.4,0.7,1.3,1.1
		c1.4,0.5,2,1.2,2.1,2.4c0,1.4-1.1,2.4-3.1,2.4c-0.9,0-1.8-0.2-2.3-0.5L92.8,354.6z"/>
	<path class="st16" d="M99.5,351c0-0.9,0-1.6-0.1-2.3h1.7l0.1,1.1l0,0c0.4-0.6,1.1-1.3,2.4-1.3c1,0,1.8,0.6,2.1,1.4l0,0
		c0.3-0.4,0.6-0.7,0.9-1c0.4-0.3,0.9-0.5,1.5-0.5c1.3,0,2.6,0.9,2.6,3.3v4.5h-1.9V352c0-1.3-0.4-2-1.4-2c-0.7,0-1.2,0.5-1.4,1
		c0,0.2-0.1,0.4-0.1,0.6v4.6H104v-4.4c0-1.1-0.4-1.8-1.3-1.8c-0.7,0-1.2,0.6-1.4,1.1c-0.1,0.2-0.1,0.4-0.1,0.6v4.5h-1.9V351H99.5z"
		/>
</g>
<g>
	<path class="st16" d="M552.3,352.5c-0.1-1.4-0.1-3-0.1-4.5l0,0c-0.3,1.3-0.8,2.7-1.3,4.1l-1.5,4.6h-1.5l-1.4-4.5
		c-0.4-1.4-0.8-2.8-1.1-4.1l0,0c0,1.4-0.1,3.1-0.2,4.5l-0.2,4.3h-1.8l0.7-10.6h2.6l1.4,4.3c0.4,1.2,0.7,2.5,1,3.7l0,0
		c0.3-1.2,0.6-2.5,1.1-3.7l1.5-4.3h2.5l0.6,10.6h-1.9L552.3,352.5z"/>
	<path class="st16" d="M558.5,347c0,0.6-0.4,1-1.1,1c-0.6,0-1.1-0.5-1.1-1c0-0.6,0.4-1.1,1.1-1.1S558.5,346.4,558.5,347z
		 M556.5,356.8v-7.7h2v7.7H556.5z"/>
	<path class="st16" d="M562.7,346.9v2.2h1.8v1.5h-1.8v3.4c0,0.9,0.3,1.4,1,1.4c0.3,0,0.6,0,0.8-0.1v1.5c-0.3,0.1-0.8,0.2-1.4,0.2
		c-0.7,0-1.3-0.2-1.7-0.6s-0.6-1.1-0.6-2.1v-3.6h-1.1v-1.5h1.1v-1.7L562.7,346.9z"/>
	<path class="st16" d="M573.3,352.9c0,2.8-2,4.1-3.9,4.1c-2.2,0-3.8-1.5-3.8-4s1.7-4.1,4-4.1C571.7,349,573.3,350.6,573.3,352.9z
		 M567.5,353c0,1.5,0.7,2.6,1.9,2.6c1.1,0,1.9-1.1,1.9-2.6c0-1.2-0.5-2.6-1.9-2.6S567.5,351.7,567.5,353z"/>
	<path class="st16" d="M580.5,356.6c-0.4,0.2-1.2,0.4-2.2,0.4c-2.4,0-4-1.5-4-3.9c0-2.3,1.6-4.1,4.3-4.1c0.7,0,1.4,0.2,1.9,0.4
		l-0.3,1.5c-0.3-0.1-0.8-0.3-1.5-0.3c-1.5,0-2.4,1.1-2.3,2.5c0,1.6,1,2.5,2.3,2.5c0.7,0,1.2-0.1,1.5-0.3L580.5,356.6z"/>
	<path class="st16" d="M581.9,345.6h2v4.6l0,0c0.2-0.4,0.6-0.7,1-0.9c0.4-0.2,0.8-0.3,1.3-0.3c1.3,0,2.7,0.9,2.7,3.3v4.5H587v-4.3
		c0-1.1-0.4-2-1.5-2c-0.8,0-1.3,0.5-1.5,1.1c-0.1,0.2-0.1,0.4-0.1,0.6v4.6h-2V345.6z"/>
	<path class="st16" d="M598.3,352.9c0,2.8-2,4.1-3.9,4.1c-2.2,0-3.8-1.5-3.8-4s1.7-4.1,4-4.1C596.7,349,598.3,350.6,598.3,352.9z
		 M592.5,353c0,1.5,0.7,2.6,1.9,2.6c1.1,0,1.9-1.1,1.9-2.6c0-1.2-0.5-2.6-1.9-2.6S592.5,351.7,592.5,353z"/>
	<path class="st16" d="M599.8,351.4c0-0.9,0-1.6-0.1-2.3h1.7l0.1,1.2l0,0c0.3-0.6,1.2-1.3,2.4-1.3c1.3,0,2.7,0.9,2.7,3.3v4.6h-1.9
		v-4.3c0-1.1-0.4-1.9-1.5-1.9c-0.8,0-1.3,0.6-1.5,1.1c-0.1,0.2-0.1,0.4-0.1,0.6v4.5h-2v-5.5H599.8z"/>
	<path class="st16" d="M616,345.6v9c0,0.8,0,1.6,0.1,2.2h-1.7l-0.1-1.2l0,0c-0.5,0.9-1.4,1.4-2.5,1.4c-1.8,0-3.3-1.6-3.3-3.9
		c0-2.6,1.6-4.1,3.4-4.1c1.1,0,1.8,0.4,2.2,1l0,0v-4.4H616z M614,352.3c0-0.2,0-0.3,0-0.5c-0.2-0.8-0.8-1.4-1.7-1.4
		c-1.2,0-1.9,1.1-1.9,2.5s0.7,2.4,1.9,2.4c0.8,0,1.5-0.5,1.7-1.4c0-0.2,0.1-0.4,0.1-0.6L614,352.3L614,352.3z"/>
	<path class="st16" d="M618,351.6c0-1,0-1.8-0.1-2.5h1.7l0.1,1.5h0.1c0.4-1.1,1.3-1.6,2.1-1.6c0.2,0,0.3,0,0.5,0v1.8
		c-0.2,0-0.3-0.1-0.6-0.1c-0.9,0-1.6,0.6-1.7,1.5c0,0.2-0.1,0.4-0.1,0.6v4h-2V351.6z"/>
	<path class="st16" d="M625.7,347c0,0.6-0.4,1-1.1,1c-0.6,0-1.1-0.5-1.1-1c0-0.6,0.4-1.1,1.1-1.1S625.7,346.4,625.7,347z
		 M623.7,356.8v-7.7h2v7.7H623.7z"/>
	<path class="st16" d="M635,352.9c0,2.8-2,4.1-3.9,4.1c-2.2,0-3.8-1.5-3.8-4s1.7-4.1,4-4.1C633.5,349,635,350.6,635,352.9z
		 M629.2,353c0,1.5,0.7,2.6,1.9,2.6c1.1,0,1.9-1.1,1.9-2.6c0-1.2-0.5-2.6-1.9-2.6C629.8,350.4,629.2,351.7,629.2,353z"/>
	<path class="st16" d="M636.6,351.4c0-0.9,0-1.6-0.1-2.3h1.7l0.1,1.2l0,0c0.3-0.6,1.2-1.3,2.4-1.3c1.3,0,2.7,0.9,2.7,3.3v4.6h-1.9
		v-4.3c0-1.1-0.4-1.9-1.5-1.9c-0.8,0-1.3,0.6-1.5,1.1c-0.1,0.2-0.1,0.4-0.1,0.6v4.5h-2v-5.5H636.6z"/>
</g>
<g>
	<path class="st16" d="M627.9,150.2l-0.6,2.1h-1.4l2.4-7.4h1.7l2.4,7.4h-1.5l-0.7-2.1H627.9z M630,149.2l-0.6-1.8
		c-0.1-0.5-0.3-1-0.4-1.4l0,0c-0.1,0.4-0.2,0.9-0.4,1.4l-0.6,1.8H630z"/>
	<path class="st16" d="M634,146h-2.1v-1.1h5.6v1.1h-2.1v6.3H634V146z"/>
	<path class="st16" d="M638.3,145c0.5-0.1,1.2-0.2,2.1-0.2c1,0,1.7,0.2,2.2,0.6c0.4,0.4,0.7,0.9,0.7,1.6c0,0.7-0.2,1.3-0.6,1.7
		c-0.5,0.5-1.4,0.8-2.3,0.8c-0.3,0-0.5,0-0.7,0v2.8h-1.3V145H638.3z M639.7,148.5c0.2,0,0.4,0.1,0.7,0.1c1,0,1.6-0.5,1.6-1.4
		c0-0.8-0.6-1.3-1.5-1.3c-0.4,0-0.6,0-0.8,0.1V148.5z"/>
	<path class="st16" d="M610,160.8c0.4,0.3,1.1,0.5,1.8,0.5c0.9,0,1.4-0.4,1.4-1s-0.4-0.9-1.3-1.2c-1.2-0.4-2-1.1-2-2.2
		c0-1.2,1-2.1,2.6-2.1c0.8,0,1.4,0.2,1.8,0.4l-0.3,1.1c-0.3-0.1-0.8-0.4-1.5-0.4c-0.9,0-1.2,0.5-1.2,0.9c0,0.6,0.4,0.8,1.4,1.2
		c1.3,0.5,1.9,1.1,1.9,2.2c0,1.2-0.9,2.2-2.8,2.2c-0.8,0-1.6-0.2-2-0.5L610,160.8z"/>
	<path class="st16" d="M617.4,162.3v-3.1l-2.3-4.3h1.5l0.9,1.9c0.3,0.5,0.4,1,0.6,1.5l0,0c0.2-0.5,0.4-0.9,0.6-1.5l0.9-1.9h1.5
		l-2.5,4.3v3.1H617.4z"/>
	<path class="st16" d="M621.9,162.3v-7.4h1.5l1.9,3.2c0.5,0.8,0.9,1.7,1.3,2.5l0,0c-0.1-1-0.1-1.9-0.1-3.1v-2.6h1.3v7.4h-1.4
		l-1.9-3.3c-0.5-0.8-1-1.7-1.3-2.6l0,0c0.1,1,0.1,1.9,0.1,3.2v2.7L621.9,162.3L621.9,162.3z"/>
	<path class="st16" d="M630.8,156h-2.1v-1.1h5.6v1.1h-2.1v6.3h-1.4V156z"/>
	<path class="st16" d="M636.5,154.9v3h3.1v-3h1.4v7.4h-1.4V159h-3.1v3.3h-1.4v-7.4L636.5,154.9L636.5,154.9z"/>
	<path class="st16" d="M644,160.2l-0.6,2.1H642l2.4-7.4h1.7l2.4,7.4H647l-0.7-2.1H644z M646.1,159.2l-0.6-1.8
		c-0.1-0.5-0.3-1-0.4-1.4l0,0c-0.1,0.4-0.2,0.9-0.4,1.4l-0.6,1.8H646.1z"/>
	<path class="st16" d="M649.5,160.8c0.4,0.3,1.1,0.5,1.8,0.5c0.9,0,1.4-0.4,1.4-1s-0.4-0.9-1.3-1.2c-1.2-0.4-2-1.1-2-2.2
		c0-1.2,1-2.1,2.6-2.1c0.8,0,1.4,0.2,1.8,0.4l-0.3,1.1c-0.3-0.1-0.8-0.4-1.5-0.4c-0.9,0-1.2,0.5-1.2,0.9c0,0.6,0.4,0.8,1.4,1.2
		c1.3,0.5,1.9,1.1,1.9,2.2c0,1.2-0.9,2.2-2.8,2.2c-0.8,0-1.6-0.2-2-0.5L649.5,160.8z"/>
	<path class="st16" d="M659.4,159h-2.8v2.2h3.1v1.1h-4.5v-7.4h4.3v1.1h-3v1.9h2.8v1.1H659.4z"/>
</g>
<g>
	<g>
		<path class="st16" d="M576.6,225.4l-2-0.2c0-0.5,1.1-12.4,12.1-19.5c6.2-4,9.9-4,14.5-4c1.2,0,2.4,0,3.7-0.1l0.1,2
			c-1.4,0.1-2.7,0.1-3.9,0.1c-4.4,0-7.6,0-13.4,3.6C577.5,213.9,576.6,225.3,576.6,225.4z"/>
	</g>
	<polygon class="st16" points="600.4,206.3 607.2,202.5 600.2,199 	"/>
</g>
<g>
	<g>
		<path class="st16" d="M549,237.3v-1.1l1-0.9c1.7-1.5,2.5-2.4,2.6-3.3c0-0.6-0.4-1.1-1.3-1.1c-0.7,0-1.3,0.3-1.7,0.6l-0.5-1.3
			c0.6-0.4,1.5-0.8,2.6-0.8c1.8,0,2.7,1,2.7,2.4c0,1.3-0.9,2.4-2.1,3.4l-0.7,0.6l0,0h2.9v1.5L549,237.3L549,237.3z"/>
		<path class="st16" d="M560.8,231h-3l-0.2,1.2c0.2,0,0.3,0,0.5,0c0.7,0,1.5,0.2,2.1,0.6c0.6,0.4,0.9,1,0.9,2c0,1.5-1.2,2.7-3.3,2.7
			c-0.9,0-1.7-0.2-2.2-0.4l0.3-1.4c0.3,0.2,1.1,0.4,1.8,0.4c0.8,0,1.6-0.4,1.6-1.2s-0.6-1.3-2.2-1.3c-0.4,0-0.7,0-1.1,0.1l0.5-4.1
			h4.3L560.8,231L560.8,231z"/>
		<path class="st16" d="M565.3,233.6v1.2h-3.1v-1.2H565.3z"/>
		<path class="st16" d="M566.5,235.5c0.3,0.2,1.1,0.5,1.8,0.5c0.9,0,1.4-0.5,1.4-1c0-0.8-0.8-1.1-1.6-1.1h-0.7v-1.3h0.7
			c0.6,0,1.4-0.2,1.4-0.9c0-0.5-0.4-0.8-1.2-0.8c-0.6,0-1.3,0.3-1.6,0.5l-0.4-1.3c0.5-0.3,1.4-0.6,2.4-0.6c1.7,0,2.6,0.9,2.6,1.9
			c0,0.8-0.5,1.5-1.4,1.8l0,0c0.9,0.2,1.7,0.9,1.7,1.9c0,1.4-1.2,2.4-3.2,2.4c-1,0-1.9-0.3-2.3-0.6L566.5,235.5z"/>
		<path class="st16" d="M578.6,233.4c0,2.4-1,4.1-3,4.1s-2.9-1.8-2.9-4c0-2.3,1-4,3-4C577.7,229.4,578.6,231.2,578.6,233.4z
			 M574.5,233.4c0,1.8,0.4,2.6,1.1,2.6c0.7,0,1.1-0.9,1.1-2.7c0-1.7-0.4-2.6-1.1-2.6C575,230.8,574.5,231.6,574.5,233.4z"/>
	</g>
	<g>
		<path class="st20" d="M585.1,235.2l-0.6,2.1h-1.9l2.5-8.1h2.4l2.5,8.1h-2l-0.6-2.1H585.1z M587.1,233.9l-0.5-1.7
			c-0.1-0.5-0.3-1.1-0.4-1.6l0,0c-0.1,0.5-0.2,1.1-0.4,1.6l-0.5,1.7H587.1z"/>
		<path class="st20" d="M591.1,229.3c0.7-0.1,1.5-0.2,2.5-0.2c1.5,0,2.5,0.3,3.3,0.9c0.8,0.6,1.4,1.6,1.4,3c0,1.5-0.6,2.6-1.3,3.3
			c-0.9,0.7-2.1,1-3.7,1c-0.9,0-1.6-0.1-2.1-0.1v-7.9H591.1z M592.9,235.9c0.2,0,0.4,0,0.6,0c1.7,0,2.7-0.9,2.7-2.8
			c0-1.7-1-2.6-2.5-2.6c-0.4,0-0.7,0-0.8,0.1V235.9z"/>
		<path class="st20" d="M599.4,229.3c0.6-0.1,1.4-0.2,2.5-0.2s1.9,0.2,2.5,0.6c0.5,0.4,0.9,1.1,0.9,1.9c0,0.8-0.3,1.5-0.7,1.9
			c-0.6,0.6-1.5,0.9-2.6,0.9c-0.2,0-0.5,0-0.6,0v2.9h-1.8v-8H599.4z M601.2,233c0.2,0,0.3,0,0.6,0c1,0,1.6-0.5,1.6-1.3
			c0-0.7-0.5-1.2-1.4-1.2c-0.4,0-0.6,0-0.8,0.1L601.2,233L601.2,233z"/>
	</g>
</g>
<g>
	<g>
		<path class="st16" d="M608.8,206.4v-1.1l1-0.9c1.7-1.5,2.5-2.4,2.6-3.3c0-0.6-0.4-1.1-1.3-1.1c-0.7,0-1.3,0.3-1.7,0.6l-0.5-1.3
			c0.6-0.4,1.5-0.8,2.6-0.8c1.8,0,2.7,1,2.7,2.4c0,1.3-0.9,2.4-2.1,3.4l-0.7,0.6l0,0h2.9v1.5L608.8,206.4L608.8,206.4z"/>
		<path class="st16" d="M620.7,200.1h-3l-0.2,1.2c0.2,0,0.3,0,0.5,0c0.7,0,1.5,0.2,2.1,0.6c0.6,0.4,0.9,1,0.9,2
			c0,1.5-1.2,2.7-3.3,2.7c-0.9,0-1.7-0.2-2.2-0.4l0.3-1.4c0.3,0.2,1.1,0.4,1.8,0.4c0.8,0,1.6-0.4,1.6-1.2s-0.6-1.3-2.2-1.3
			c-0.4,0-0.7,0-1.1,0.1l0.5-4.1h4.3L620.7,200.1L620.7,200.1z"/>
		<path class="st16" d="M625.1,202.6v1.2H622v-1.2H625.1z"/>
		<path class="st16" d="M626.3,204.6c0.3,0.2,1.1,0.5,1.8,0.5c0.9,0,1.4-0.5,1.4-1c0-0.8-0.8-1.1-1.6-1.1h-0.7v-1.3h0.7
			c0.6,0,1.4-0.2,1.4-0.9c0-0.5-0.4-0.8-1.2-0.8c-0.6,0-1.3,0.3-1.6,0.5l-0.4-1.3c0.5-0.3,1.4-0.6,2.4-0.6c1.7,0,2.6,0.9,2.6,1.9
			c0,0.8-0.5,1.5-1.4,1.8l0,0c0.9,0.2,1.7,0.9,1.7,1.9c0,1.4-1.2,2.4-3.2,2.4c-1,0-1.9-0.3-2.3-0.6L626.3,204.6z"/>
		<path class="st16" d="M638.4,202.5c0,2.4-1,4.1-3,4.1s-2.9-1.8-2.9-4c0-2.3,1-4,3-4C637.6,198.5,638.4,200.3,638.4,202.5z
			 M634.4,202.5c0,1.8,0.4,2.6,1.1,2.6c0.7,0,1.1-0.9,1.1-2.7c0-1.7-0.4-2.6-1.1-2.6C634.8,199.8,634.4,200.7,634.4,202.5z"/>
	</g>
	<g>
		<path class="st21" d="M643.9,204.3l-0.6,2.1h-1.9l2.5-8.1h2.4l2.5,8.1h-2l-0.6-2.1H643.9z M646,202.9l-0.5-1.7
			c-0.1-0.5-0.3-1.1-0.4-1.6l0,0c-0.1,0.5-0.2,1.1-0.4,1.6l-0.5,1.7H646z"/>
		<path class="st21" d="M650.5,199.8h-2.2v-1.5h6.2v1.5h-2.2v6.5h-1.8V199.8z"/>
		<path class="st21" d="M655.5,198.4c0.6-0.1,1.4-0.2,2.5-0.2s1.9,0.2,2.5,0.6c0.5,0.4,0.9,1.1,0.9,1.9s-0.3,1.5-0.7,1.9
			c-0.6,0.6-1.5,0.9-2.6,0.9c-0.2,0-0.5,0-0.6,0v2.9h-1.8v-8H655.5z M657.3,202.1c0.2,0,0.3,0,0.6,0c1,0,1.6-0.5,1.6-1.3
			c0-0.7-0.5-1.2-1.4-1.2c-0.4,0-0.6,0-0.8,0.1L657.3,202.1L657.3,202.1z"/>
	</g>
</g>
<g>
	<path class="st16" d="M186.7,49.2c-0.8,0.4-2.4,0.8-4.5,0.8c-5.6,0-8.9-3.5-8.9-8.8c0-5.8,4-9.3,9.4-9.3c2.1,0,3.6,0.4,4.3,0.8
		l-0.7,2.5c-0.8-0.4-2-0.7-3.4-0.7c-3.6,0-6.1,2.2-6.1,6.4c0,3.8,2.3,6.3,6.1,6.3c1.3,0,2.7-0.3,3.5-0.6L186.7,49.2z"/>
	<path class="st16" d="M191.1,44.3c0.1,2.3,1.9,3.3,3.9,3.3c1.5,0,2.5-0.2,3.5-0.6l0.5,2.2c-1.1,0.4-2.6,0.8-4.4,0.8
		c-4.1,0-6.5-2.5-6.5-6.4c0-3.5,2.1-6.8,6.2-6.8c4.1,0,5.5,3.4,5.5,6.2c0,0.6-0.1,1.1-0.1,1.4h-8.6V44.3z M196.7,42.1
		c0-1.2-0.5-3.1-2.6-3.1c-2,0-2.8,1.8-2.9,3.1H196.7z"/>
	<path class="st16" d="M202.3,31.3h3.2v18.5h-3.2V31.3z"/>
	<path class="st16" d="M209,31.3h3.2v18.5H209V31.3z"/>
	<path class="st16" d="M227,46c0,1.5,0.1,2.8,0.1,3.8h-2.8l-0.2-1.9H224c-0.5,0.9-1.8,2.2-4.1,2.2s-4.4-1.4-4.4-5.5v-7.4h3.2V44
		c0,2.1,0.7,3.5,2.4,3.5c1.3,0,2.1-0.9,2.4-1.7c0.1-0.3,0.2-0.6,0.2-1v-7.6h3.2V46H227z"/>
	<path class="st16" d="M230.4,31.3h3.2v18.5h-3.2V31.3z"/>
	<path class="st16" d="M244.2,49.8l-0.2-1.4l0,0c-0.8,1-2.1,1.7-3.7,1.7c-2.5,0-4-1.8-4-3.8c0-3.2,2.8-4.8,7.5-4.8v-0.2
		c0-0.8-0.3-2.2-2.6-2.2c-1.2,0-2.5,0.4-3.4,0.9l-0.6-2.1c0.9-0.6,2.6-1.1,4.6-1.1c4.1,0,5.2,2.6,5.2,5.3v4.6c0,1.1,0.1,2.3,0.2,3
		L244.2,49.8L244.2,49.8z M243.8,43.6c-2.3-0.1-4.4,0.4-4.4,2.4c0,1.2,0.8,1.8,1.8,1.8c1.3,0,2.2-0.8,2.5-1.7
		c0.1-0.2,0.1-0.5,0.1-0.7L243.8,43.6L243.8,43.6z"/>
	<path class="st16" d="M250.3,41.2c0-1.7,0-2.9-0.1-4.1h2.8l0.1,2.4h0.1c0.6-1.8,2.1-2.7,3.5-2.7c0.3,0,0.5,0,0.8,0.1v3
		c-0.3-0.1-0.5-0.1-0.9-0.1c-1.5,0-2.6,1-2.9,2.4c-0.1,0.3-0.1,0.6-0.1,1v6.6h-3.2v-8.6H250.3z"/>
	<path class="st16" d="M265.1,32.5c1.2-0.2,3-0.4,4.8-0.4c2.5,0,4.2,0.4,5.4,1.4c1,0.8,1.5,2,1.5,3.5c0,2.3-1.5,3.8-3.2,4.4v0.1
		c1.2,0.5,2,1.7,2.4,3.4c0.5,2.2,1,4.2,1.4,4.9h-3.3c-0.3-0.5-0.7-2-1.2-4.1c-0.5-2.3-1.3-3-3.1-3.1h-1.6v7.2H265V32.5H265.1z
		 M268.3,40.2h1.9c2.2,0,3.5-1.1,3.5-2.9c0-1.9-1.4-2.8-3.4-2.8c-1,0-1.7,0.1-2,0.2V40.2z"/>
	<path class="st16" d="M282.1,44.3c0.1,2.3,1.9,3.3,3.9,3.3c1.5,0,2.5-0.2,3.5-0.6l0.5,2.2c-1.1,0.4-2.6,0.8-4.4,0.8
		c-4.1,0-6.5-2.5-6.5-6.4c0-3.5,2.1-6.8,6.2-6.8s5.5,3.4,5.5,6.2c0,0.6-0.1,1.1-0.1,1.4h-8.6V44.3z M287.7,42.1
		c0-1.2-0.5-3.1-2.6-3.1c-2,0-2.8,1.8-2.9,3.1H287.7z"/>
	<path class="st16" d="M293.1,46.8c0.7,0.4,2.1,0.9,3.2,0.9c1.4,0,2-0.6,2-1.4c0-0.9-0.5-1.3-2.1-1.8c-2.5-0.9-3.5-2.2-3.5-3.7
		c0-2.2,1.8-4,4.8-4c1.4,0,2.6,0.4,3.4,0.8l-0.6,2.3c-0.5-0.3-1.6-0.7-2.7-0.7s-1.8,0.5-1.8,1.3s0.6,1.2,2.2,1.8
		c2.3,0.8,3.4,2,3.4,3.9c0,2.3-1.8,4-5.1,4c-1.5,0-2.9-0.4-3.8-0.9L293.1,46.8z"/>
	<path class="st16" d="M304.1,41.3c0-1.7-0.1-3-0.1-4.2h2.8l0.2,2h0.1c0.9-1.4,2.4-2.2,4.3-2.2c2.9,0,5.3,2.5,5.3,6.4
		c0,4.6-2.9,6.8-5.8,6.8c-1.6,0-2.9-0.7-3.6-1.7h-0.1V55H304V41.3H304.1z M307.3,44.5c0,0.3,0,0.6,0.1,0.9c0.3,1.3,1.5,2.2,2.8,2.2
		c2,0,3.2-1.7,3.2-4.2c0-2.2-1.1-4.1-3.1-4.1c-1.3,0-2.5,1-2.9,2.4c-0.1,0.3-0.1,0.5-0.1,0.8V44.5z"/>
	<path class="st16" d="M322.7,33.6c0,1-0.7,1.7-1.8,1.7c-1.1,0-1.8-0.8-1.8-1.7c0-1,0.7-1.7,1.8-1.7C322,31.8,322.7,32.6,322.7,33.6
		z M319.3,49.8V37.1h3.2v12.7H319.3z"/>
	<path class="st16" d="M326,41.2c0-1.7,0-2.9-0.1-4.1h2.8l0.1,2.4h0.1c0.6-1.8,2.1-2.7,3.5-2.7c0.3,0,0.5,0,0.8,0.1v3
		c-0.3-0.1-0.5-0.1-0.9-0.1c-1.5,0-2.6,1-2.9,2.4c-0.1,0.3-0.1,0.6-0.1,1v6.6H326V41.2z"/>
	<path class="st16" d="M342.1,49.8l-0.2-1.4h-0.1c-0.8,1-2.1,1.7-3.7,1.7c-2.5,0-4-1.8-4-3.8c0-3.2,2.8-4.8,7.5-4.8v-0.2
		c0-0.8-0.3-2.2-2.6-2.2c-1.2,0-2.5,0.4-3.4,0.9l-0.6-2.1c0.9-0.6,2.6-1.1,4.6-1.1c4.1,0,5.2,2.6,5.2,5.3v4.6c0,1.1,0.1,2.3,0.2,3
		L342.1,49.8L342.1,49.8z M341.7,43.6c-2.3-0.1-4.4,0.4-4.4,2.4c0,1.2,0.8,1.8,1.8,1.8c1.3,0,2.2-0.8,2.5-1.7
		c0.1-0.2,0.1-0.5,0.1-0.7V43.6z"/>
	<path class="st16" d="M351.7,33.5v3.6h3v2.4h-3v5.6c0,1.5,0.4,2.3,1.6,2.3c0.5,0,1-0.1,1.2-0.2l0.1,2.4c-0.5,0.2-1.3,0.3-2.3,0.3
		c-1.2,0-2.2-0.4-2.8-1c-0.7-0.7-1-1.9-1-3.5v-6h-1.8V37h1.8v-2.9L351.7,33.5z"/>
	<path class="st16" d="M360.6,33.6c0,1-0.7,1.7-1.8,1.7c-1.1,0-1.8-0.8-1.8-1.7c0-1,0.7-1.7,1.8-1.7
		C359.9,31.8,360.5,32.6,360.6,33.6z M357.2,49.8V37.1h3.2v12.7H357.2z"/>
	<path class="st16" d="M375.9,43.3c0,4.7-3.3,6.7-6.5,6.7c-3.6,0-6.3-2.5-6.3-6.5c0-4.2,2.7-6.7,6.6-6.7
		C373.3,36.8,375.9,39.5,375.9,43.3z M366.3,43.4c0,2.4,1.2,4.3,3.1,4.3c1.8,0,3.1-1.8,3.1-4.3c0-2-0.9-4.2-3.1-4.2
		C367.2,39.2,366.3,41.3,366.3,43.4z"/>
	<path class="st16" d="M378.5,40.9c0-1.5,0-2.7-0.1-3.8h2.8l0.2,1.9h0.1c0.5-1,1.9-2.2,4-2.2c2.2,0,4.5,1.4,4.5,5.4v7.5h-3.2v-7.2
		c0-1.8-0.7-3.2-2.4-3.2c-1.3,0-2.2,0.9-2.5,1.9c-0.1,0.3-0.1,0.7-0.1,1v7.4h-3.2L378.5,40.9L378.5,40.9z"/>
	<path class="st16" d="M414.4,40.8c0,5.9-3.6,9.2-8.4,9.2c-4.9,0-8.1-3.8-8.1-8.9c0-5.4,3.4-9.2,8.3-9.2
		C411.4,32,414.4,35.8,414.4,40.8z M401.3,41.1c0,3.6,1.8,6.4,4.9,6.4s4.8-2.9,4.8-6.5c0-3.3-1.6-6.4-4.8-6.4
		C403,34.5,401.3,37.5,401.3,41.1z"/>
	<path class="st16" d="M419.4,37.1l2.1,6.4c0.4,1.1,0.6,2.1,0.9,3.2h0.1c0.2-1,0.5-2,0.9-3.2l2-6.4h3.4L424,49.8h-3.1l-4.7-12.7
		H419.4z"/>
	<path class="st16" d="M432.5,44.3c0.1,2.3,1.9,3.3,3.9,3.3c1.5,0,2.5-0.2,3.5-0.6l0.5,2.2c-1.1,0.4-2.6,0.8-4.4,0.8
		c-4.1,0-6.5-2.5-6.5-6.4c0-3.5,2.1-6.8,6.2-6.8s5.5,3.4,5.5,6.2c0,0.6-0.1,1.1-0.1,1.4h-8.6V44.3z M438,42.1c0-1.2-0.5-3.1-2.6-3.1
		c-2,0-2.8,1.8-2.9,3.1H438z"/>
	<path class="st16" d="M443.6,41.2c0-1.7,0-2.9-0.1-4.1h2.8l0.1,2.4h0.1c0.6-1.8,2.1-2.7,3.5-2.7c0.3,0,0.5,0,0.8,0.1v3
		c-0.3-0.1-0.5-0.1-0.9-0.1c-1.5,0-2.6,1-2.9,2.4c-0.1,0.3-0.1,0.6-0.1,1v6.6h-3.2L443.6,41.2L443.6,41.2z"/>
	<path class="st16" d="M455.5,37.1l2.1,6.4c0.4,1.1,0.6,2.1,0.9,3.2h0.1c0.2-1,0.5-2,0.9-3.2l2-6.4h3.4l-4.8,12.7H457l-5-12.7H455.5
		z"/>
	<path class="st16" d="M470.1,33.6c0,1-0.7,1.7-1.8,1.7c-1.1,0-1.8-0.8-1.8-1.7c0-1,0.7-1.7,1.8-1.7
		C469.4,31.8,470.1,32.6,470.1,33.6z M466.7,49.8V37.1h3.2v12.7H466.7z"/>
	<path class="st16" d="M475.6,44.3c0.1,2.3,1.9,3.3,3.9,3.3c1.5,0,2.5-0.2,3.5-0.6l0.5,2.2c-1.1,0.4-2.6,0.8-4.4,0.8
		c-4.1,0-6.5-2.5-6.5-6.4c0-3.5,2.1-6.8,6.2-6.8s5.5,3.4,5.5,6.2c0,0.6-0.1,1.1-0.1,1.4h-8.6V44.3z M481.2,42.1
		c0-1.2-0.5-3.1-2.6-3.1c-2,0-2.8,1.8-2.9,3.1H481.2z"/>
	<path class="st16" d="M488.6,37.1l1.3,5.7c0.3,1.4,0.6,2.7,0.8,4.1h0.1c0.3-1.4,0.7-2.8,1-4.1l1.6-5.8h2.6l1.6,5.6
		c0.4,1.5,0.7,2.9,1,4.2h0.1c0.2-1.4,0.5-2.8,0.8-4.2l1.4-5.6h3.1l-4,12.7h-3l-1.5-5.1c-0.4-1.3-0.7-2.5-1-4.1h-0.1
		c-0.3,1.6-0.6,2.8-1,4.1l-1.6,5.1h-3L485.1,37L488.6,37.1L488.6,37.1z"/>
</g>
<g>
	<path class="st16" d="M507.2,75.3h-3.7v2.4h4.1v1.8h-6.3v-9.9h6.1v1.8h-3.9v2.1h3.7L507.2,75.3L507.2,75.3z"/>
	<path class="st16" d="M509.1,69h2.2v10.5h-2.2V69z"/>
	<path class="st16" d="M514.9,76.6c0.1,0.9,1,1.4,2,1.4c0.8,0,1.4-0.1,2-0.3l0.3,1.5c-0.7,0.3-1.6,0.4-2.6,0.4
		c-2.4,0-3.8-1.4-3.8-3.7c0-1.8,1.1-3.8,3.6-3.8c2.3,0,3.2,1.8,3.2,3.6c0,0.4,0,0.7-0.1,0.9H514.9z M517.5,75.1
		c0-0.5-0.2-1.5-1.3-1.5c-0.9,0-1.3,0.9-1.4,1.5H517.5z"/>
	<path class="st16" d="M526.3,79.3c-0.4,0.2-1.1,0.3-2,0.3c-2.3,0-3.8-1.4-3.8-3.7c0-2.1,1.4-3.8,4.1-3.8c0.6,0,1.2,0.1,1.7,0.3
		l-0.4,1.7c-0.3-0.1-0.7-0.2-1.3-0.2c-1.2,0-1.9,0.8-1.9,2c0,1.3,0.9,2,2,2c0.5,0,0.9-0.1,1.3-0.2L526.3,79.3z"/>
	<path class="st16" d="M530.3,70.2v2.1h1.6v1.6h-1.6v2.6c0,0.9,0.2,1.3,0.9,1.3c0.3,0,0.5,0,0.7-0.1v1.7c-0.3,0.1-0.8,0.2-1.5,0.2
		s-1.3-0.3-1.7-0.6c-0.4-0.4-0.6-1.1-0.6-2.1V74h-1v-1.6h1v-1.6L530.3,70.2z"/>
	<path class="st16" d="M533.2,74.7c0-1.1,0-1.8-0.1-2.4h1.9l0.1,1.3h0.1c0.4-1,1.3-1.5,1.9-1.5c0.2,0,0.3,0,0.5,0v2.1
		c-0.2,0-0.4-0.1-0.6-0.1c-0.8,0-1.4,0.4-1.5,1.1c0,0.1,0,0.3,0,0.5v3.7h-2.2v-4.7H533.2z"/>
	<path class="st16" d="M545.8,75.8c0,2.6-1.9,3.8-3.8,3.8c-2.1,0-3.7-1.4-3.7-3.7c0-2.3,1.5-3.8,3.8-3.8
		C544.3,72.1,545.8,73.6,545.8,75.8z M540.6,75.9c0,1.2,0.5,2.2,1.5,2.2c0.9,0,1.4-0.9,1.4-2.2c0-1.1-0.4-2.2-1.4-2.2
		C541,73.7,540.6,74.8,540.6,75.9z"/>
	<path class="st16" d="M547.2,74.6c0-0.9,0-1.7-0.1-2.3h1.9l0.1,1l0,0c0.3-0.5,1-1.1,2.2-1.1c1.5,0,2.6,1,2.6,3.1v4.3h-2.2v-4
		c0-0.9-0.3-1.6-1.1-1.6c-0.6,0-1,0.4-1.1,0.8c-0.1,0.1-0.1,0.4-0.1,0.6v4.2h-2.2L547.2,74.6L547.2,74.6z"/>
	<path class="st16" d="M560.2,71.4h-2.7v-1.9h7.6v1.9h-2.7v8h-2.3v-8H560.2z"/>
	<path class="st16" d="M565.5,74.7c0-1.1,0-1.8-0.1-2.4h1.9l0.1,1.3h0.1c0.4-1,1.3-1.5,1.9-1.5c0.2,0,0.3,0,0.5,0v2.1
		c-0.2,0-0.4-0.1-0.6-0.1c-0.8,0-1.4,0.4-1.5,1.1c0,0.1,0,0.3,0,0.5v3.7h-2.2v-4.7H565.5z"/>
	<path class="st16" d="M575,79.5l-0.1-0.7l0,0c-0.5,0.6-1.2,0.9-2.1,0.9c-1.5,0-2.3-1.1-2.3-2.2c0-1.9,1.7-2.8,4.2-2.8v-0.1
		c0-0.4-0.2-0.9-1.3-0.9c-0.7,0-1.5,0.3-2,0.5l-0.4-1.4c0.5-0.3,1.5-0.6,2.8-0.6c2.4,0,3.2,1.4,3.2,3.1v2.5c0,0.7,0,1.4,0.1,1.8H575
		V79.5z M574.7,76.1c-1.2,0-2.1,0.3-2.1,1.1c0,0.6,0.4,0.9,0.9,0.9c0.6,0,1-0.4,1.2-0.8c0-0.1,0-0.3,0-0.4L574.7,76.1L574.7,76.1z"
		/>
	<path class="st16" d="M578.7,74.6c0-0.9,0-1.7-0.1-2.3h1.9l0.1,1l0,0c0.3-0.5,1-1.1,2.2-1.1c1.5,0,2.6,1,2.6,3.1v4.3h-2.2v-4
		c0-0.9-0.3-1.6-1.1-1.6c-0.6,0-1,0.4-1.1,0.8c-0.1,0.1-0.1,0.4-0.1,0.6v4.2h-2.2L578.7,74.6L578.7,74.6z"/>
	<path class="st16" d="M587.3,77.5c0.4,0.3,1.3,0.5,1.9,0.5c0.7,0,1-0.2,1-0.6s-0.2-0.5-1.1-0.8c-1.5-0.5-2.1-1.3-2-2.2
		c0-1.3,1.2-2.4,2.9-2.4c0.8,0,1.6,0.2,2,0.4l-0.4,1.5c-0.3-0.2-0.9-0.4-1.6-0.4c-0.5,0-0.9,0.2-0.9,0.6c0,0.3,0.3,0.5,1.2,0.8
		c1.4,0.5,1.9,1.2,2,2.2c0,1.3-1.1,2.3-3.1,2.3c-0.9,0-1.8-0.2-2.3-0.5L587.3,77.5z"/>
	<path class="st16" d="M593.7,74.7c0-0.9,0-1.8-0.1-2.4h1.9l0.1,1l0,0c0.5-0.8,1.4-1.2,2.4-1.2c1.6,0,3,1.4,3,3.7
		c0,2.6-1.7,3.9-3.3,3.9c-0.9,0-1.5-0.4-1.9-0.8l0,0v3.6h-2.2L593.7,74.7L593.7,74.7z M595.9,76.4c0,0.2,0,0.3,0,0.5
		c0.1,0.6,0.7,1.1,1.3,1.1c1,0,1.5-0.8,1.5-2c0-1.1-0.5-2-1.5-2c-0.6,0-1.2,0.5-1.3,1.1c0,0.1,0,0.3,0,0.4V76.4z"/>
	<path class="st16" d="M609.7,75.8c0,2.6-1.9,3.8-3.8,3.8c-2.1,0-3.7-1.4-3.7-3.7c0-2.3,1.5-3.8,3.8-3.8
		C608.2,72.1,609.7,73.6,609.7,75.8z M604.4,75.9c0,1.2,0.5,2.2,1.5,2.2c0.9,0,1.4-0.9,1.4-2.2c0-1.1-0.4-2.2-1.4-2.2
		C604.8,73.7,604.4,74.8,604.4,75.9z"/>
	<path class="st16" d="M611,74.7c0-1.1,0-1.8-0.1-2.4h1.9l0.1,1.3h0.1c0.4-1,1.3-1.5,1.9-1.5c0.2,0,0.3,0,0.5,0v2.1
		c-0.2,0-0.4-0.1-0.6-0.1c-0.8,0-1.4,0.4-1.5,1.1c0,0.1,0,0.3,0,0.5v3.7H611V74.7z"/>
	<path class="st16" d="M619.4,70.2v2.1h1.6v1.6h-1.6v2.6c0,0.9,0.2,1.3,0.9,1.3c0.3,0,0.5,0,0.7-0.1v1.7c-0.3,0.1-0.8,0.2-1.5,0.2
		s-1.3-0.3-1.7-0.6c-0.4-0.4-0.6-1.1-0.6-2.1V74h-1v-1.6h1v-1.6L619.4,70.2z"/>
	<path class="st16" d="M632.7,79.2c-0.4,0.2-1.3,0.4-2.5,0.4c-3.4,0-5.2-2.1-5.2-5c0-3.4,2.4-5.3,5.4-5.3c1.2,0,2,0.2,2.4,0.4
		l-0.5,1.8c-0.5-0.2-1.1-0.4-1.9-0.4c-1.8,0-3.2,1.1-3.2,3.3c0,2,1.2,3.2,3.2,3.2c0.7,0,1.4-0.1,1.9-0.3L632.7,79.2z"/>
	<path class="st16" d="M634,69h2.2v4.1l0,0c0.2-0.3,0.5-0.5,0.9-0.7c0.3-0.2,0.8-0.3,1.2-0.3c1.4,0,2.5,1,2.5,3.2v4.2h-2.2v-4
		c0-0.9-0.3-1.6-1.2-1.6c-0.6,0-1,0.4-1.1,0.8c-0.1,0.1-0.1,0.3-0.1,0.5v4.3H634V69z"/>
	<path class="st16" d="M646.8,79.5l-0.1-0.7l0,0c-0.5,0.6-1.2,0.9-2.1,0.9c-1.5,0-2.3-1.1-2.3-2.2c0-1.9,1.7-2.8,4.2-2.8v-0.1
		c0-0.4-0.2-0.9-1.3-0.9c-0.7,0-1.5,0.3-2,0.5l-0.4-1.4c0.5-0.3,1.5-0.6,2.8-0.6c2.4,0,3.2,1.4,3.2,3.1v2.5c0,0.7,0,1.4,0.1,1.8
		h-2.1V79.5z M646.5,76.1c-1.2,0-2.1,0.3-2.1,1.1c0,0.6,0.4,0.9,0.9,0.9c0.6,0,1-0.4,1.2-0.8c0-0.1,0-0.3,0-0.4L646.5,76.1
		L646.5,76.1z"/>
	<path class="st16" d="M652.7,70.3c0,0.6-0.5,1.1-1.2,1.1s-1.2-0.5-1.2-1.1s0.5-1.1,1.2-1.1C652.3,69.1,652.7,69.6,652.7,70.3z
		 M650.4,79.5v-7.2h2.2v7.2H650.4z"/>
	<path class="st16" d="M654.5,74.6c0-0.9,0-1.7-0.1-2.3h1.9l0.1,1l0,0c0.3-0.5,1-1.1,2.2-1.1c1.5,0,2.6,1,2.6,3.1v4.3H659v-4
		c0-0.9-0.3-1.6-1.1-1.6c-0.6,0-1,0.4-1.1,0.8c-0.1,0.1-0.1,0.4-0.1,0.6v4.2h-2.2L654.5,74.6L654.5,74.6z"/>
</g>
<circle class="st26" cx="53.7" cy="257.9" r="7.2"/>
<g>
	<circle class="st26" cx="47.3" cy="244.7" r="7.2"/>
	<circle class="st26" cx="47.3" cy="271.2" r="7.2"/>
</g>
<circle class="st26" cx="312.5" cy="259.6" r="7.2"/>
<circle class="st26" cx="456.9" cy="256.5" r="7.2"/>
<circle class="st26" cx="471.9" cy="265.3" r="7.2"/>
<circle class="st26" cx="462" cy="282.2" r="7.2"/>
<g>
	<circle class="st26" cx="26.5" cy="257.9" r="7.2"/>
	<g>
		<circle class="st26" cx="32.9" cy="271.2" r="7.2"/>
		<circle class="st26" cx="32.9" cy="244.7" r="7.2"/>
	</g>
</g>
<circle class="st26" cx="446.2" cy="272.3" r="7.2"/>
<path class="st27" d="M586.2,181.2c-7.2-3.1-8.1,5-8.1,7.9s4.4,5,6.8,3.1c3.5,4.8,8.1,0.4,8.1,0.4c6.8,4.2,8.8-5.3,7.9-8.1
	s-4.2-4-6.6-3.5c0.4-0.2,0-3.5,0-3.5c3.3-1.8,2.4-2.9,2.4-2.9v-20.9c-7-6.1-13.4-1.3-13.4-1.3c0,24.4,0,24.4,0,24.4
	c1.1,2.2,2.9,1.3,2.9,1.3L586.2,181.2L586.2,181.2z"/>
<path class="st28" d="M556.2,172.2l9.1,4.8c0,0,1.8,1,2.5-0.9c0,0.3,6.4-16.5,6.4-16.5c2-6.4-0.7-6.9-2.8-6.9c-2,0-5.4,3.4-6.7,5.3
	s-8.2,11-8.2,11C555.6,171.1,556.2,172.2,556.2,172.2z"/>
<path class="st29" d="M554.8,162.3c1.6,3.4-0.1,6.6-5.1,6.6s-6.3-5.3-5.3-7.9c1-2.6,3.8-2.5,3.8-2.5c3.2-6.4,3.2-6.4,3.2-6.4
	c-2.5-3.8,0.1-5.3,2.3-5.6s5.7,1.9,6.9,2.6c2.8,2.6,3.1,6.9-1.6,8C559.6,157.4,554.8,162.3,554.8,162.3z"/>
<path class="st30" d="M533.9,154.8l3.3-6.6c2.2-2.3,4.3-1.3,5.5-0.8s2.7,1.9,2.7,1.9c3.2,1.9,0.3,6.1,0.2,6.5
	c-0.8,1.5-2.3,4.2-2.3,4.2c-1.5,2.2-6.7-0.3-8.5-2.6C533,155.2,533.9,154.8,533.9,154.8z"/>
<path class="st31" d="M526,142.1c-4.1,2.5-6.6,5.5-4.5,8s6.5,3.8,6.5,3.8c3.5,0.2,5.2-2.9,5-4.8c-0.1-2-0.2-3-0.2-3
	c3.7-4.5,6.1-7.6,4.6-10.6c-1.5-3.1-5.3-3.5-7.1-1.8C527.2,137,526,142.1,526,142.1z"/>
</svg>
